<?xml version="1.0" standalone="no"?>
<!DOCTYPE svg PUBLIC "-//W3C//DTD SVG 20010904//EN"
 "http://www.w3.org/TR/2001/REC-SVG-20010904/DTD/svg10.dtd">
<svg version="1.0" xmlns="http://www.w3.org/2000/svg"
 width="499.000000pt" height="122.000000pt" viewBox="0 0 299.000000 61.000000"
 preserveAspectRatio="xMidYMid meet">

<g transform="translate(0.000000,61.000000) scale(0.100000,-0.100000)"
fill="#000000" stroke="none">
<path d="M632 308 c-40 -150 -72 -276 -72 -280 0 -5 63 -8 140 -8 l139 0 10
38 c6 21 14 52 17 70 l7 32 -63 0 c-60 0 -62 1 -56 23 3 12 6 28 6 35 0 8 20
12 68 12 l68 0 17 64 c9 35 17 67 17 70 0 3 -28 6 -63 8 l-63 3 8 32 c8 32 9
32 75 35 l66 3 18 65 c10 36 18 66 19 68 0 1 -64 2 -143 2 l-143 0 -72 -272z"/>
<path d="M996 317 c-38 -144 -71 -270 -74 -279 -4 -16 4 -18 66 -18 l71 0 12
43 c6 23 24 89 40 147 l29 105 -3 -147 -2 -148 30 0 c29 0 33 6 105 150 41 82
76 148 78 146 2 -2 -13 -64 -32 -138 -20 -74 -36 -140 -36 -146 0 -8 22 -12
68 -12 l67 0 73 273 c40 149 73 275 72 280 0 4 -40 7 -89 7 l-89 0 -25 -42
c-13 -24 -42 -76 -63 -117 l-39 -74 -3 117 -3 116 -92 0 -92 0 -69 -263z"/>
<path d="M1663 545 c-40 -27 -54 -44 -62 -73 -29 -109 -41 -158 -41 -170 0 -7
12 -24 28 -37 22 -20 38 -24 85 -25 62 0 68 -8 47 -64 -11 -29 -60 -38 -60
-11 0 12 -14 15 -69 15 l-69 0 -12 -47 -12 -48 39 -32 c36 -31 42 -33 123 -33
81 0 88 2 136 34 l51 35 28 105 c15 59 26 107 24 109 -2 1 -19 15 -37 32 -25
23 -46 31 -86 35 l-52 5 8 33 c7 25 14 32 33 32 16 0 25 -6 25 -15 0 -12 14
-15 69 -15 l69 0 12 50 12 51 -38 34 c-37 33 -42 34 -119 35 -75 0 -83 -2
-132 -35z"/>
</g>
</svg>
