<svg version="1.1" id="Layer_1" xmlns="http://www.w3.org/2000/svg" xmlns:xlink="http://www.w3.org/1999/xlink" x="0px" y="0px"
	 width="100%" viewBox="0 0 340 200" enable-background="new 0 0 340 200" xml:space="preserve">
<path fill="#FFFFFF" opacity="1.000000" stroke="none" 
	d="
M1.000000,200.000000 
	C1.000000,134.312439 1.000000,68.624878 1.228526,2.372935 
	C1.738152,1.606274 1.919134,1.336756 2.000000,1.000000 
	C114.354225,1.000000 226.708450,1.000000 339.634399,1.223630 
	C340.400726,1.732124 340.665344,1.916370 341.000000,2.000000 
	C341.000000,67.687561 341.000000,133.375122 340.774963,199.631592 
	C340.274048,200.403305 340.090729,200.669800 340.000000,201.000000 
	C227.645767,201.000000 115.291542,201.000000 2.370206,200.772736 
	C1.608751,200.255676 1.341052,200.073853 1.000000,200.000000 
M208.755417,95.509140 
	C208.565643,95.265640 208.317123,95.128471 207.404068,94.832504 
	C206.259399,94.217812 205.114731,93.603119 203.748978,92.476501 
	C203.482330,91.987297 203.215683,91.498093 203.579330,90.933075 
	C204.055664,90.334770 204.531998,89.736458 205.672760,89.005806 
	C206.119644,89.054352 206.566513,89.102898 207.488678,89.672691 
	C209.737640,90.456703 212.124222,92.918427 214.636246,88.991547 
	C215.066742,88.925865 215.497238,88.860184 216.296509,89.325676 
	C217.811310,86.196915 219.502075,83.134926 220.730453,79.897484 
	C221.085083,78.962807 220.486069,77.083046 219.678223,76.394073 
	C216.594711,73.764381 213.247559,71.443787 209.825500,68.221565 
	C205.233475,67.769554 200.644226,67.277206 196.042847,66.961563 
	C195.754089,66.941757 195.370590,68.303215 194.608673,69.570023 
	C192.146683,71.137985 189.461716,72.448952 187.281006,74.341087 
	C184.741943,76.544167 182.531128,75.855080 181.880783,73.333130 
	C180.643799,68.536278 177.360016,68.891052 173.823029,68.993507 
	C170.850067,69.079628 167.831055,68.721069 164.914764,69.136848 
	C163.448608,69.345886 162.165558,70.839294 160.101028,71.908730 
	C156.205109,74.198769 154.666733,77.658134 154.991837,82.022980 
	C154.991837,82.022980 155.070511,82.050125 154.335632,82.141029 
	C153.898941,83.441856 153.462265,84.742683 152.963989,86.563934 
	C152.853592,86.699318 152.743179,86.834694 151.854980,86.966019 
	C147.827682,87.024734 149.112289,84.127716 149.215210,82.041466 
	C149.360352,79.099609 149.960693,76.164886 149.919800,73.233345 
	C149.875778,70.076447 148.765533,68.109238 144.723587,68.785217 
	C141.378448,69.344681 137.761581,69.155937 134.406052,68.535919 
	C130.889175,67.886101 129.407928,68.981941 129.142258,72.896599 
	C129.039963,73.259842 128.937668,73.623077 128.151505,74.079971 
	C125.557739,75.560478 123.873375,74.784576 123.217300,71.418945 
	C122.669678,70.715286 122.235535,69.558128 121.554482,69.387695 
	C118.835030,68.707184 116.034271,68.357376 113.273170,67.834648 
	C112.161949,67.624283 111.085045,67.090195 109.975952,67.034744 
	C103.870018,66.729431 97.758957,66.526634 91.452232,66.280975 
	C91.867035,67.799141 92.458305,69.963135 92.992058,72.588463 
	C92.992058,72.588463 92.780144,73.002266 92.166229,73.341003 
	C88.363770,74.270210 86.068901,76.973625 87.154663,80.537743 
	C89.629662,88.662148 81.884132,93.628540 81.530235,100.944885 
	C80.571213,99.527336 80.633774,98.163193 80.557755,96.806816 
	C80.414337,94.247833 80.191132,91.693321 80.653442,89.026115 
	C81.091415,88.980789 81.529381,88.935455 82.290062,89.397575 
	C82.882378,89.505196 83.474701,89.612823 84.067017,89.720444 
	C83.157562,86.230438 86.489746,82.327171 83.064522,78.566025 
	C83.050545,78.393044 83.036568,78.220070 83.148483,77.548477 
	C83.234497,77.400200 83.320511,77.251930 84.055031,76.884453 
	C84.411911,75.595337 84.768791,74.306229 85.837677,72.906891 
	C90.095428,70.248383 86.489761,67.759010 85.556702,64.378044 
	C82.552917,71.643082 76.659470,69.941200 71.433060,69.976303 
	C60.130066,70.052246 48.824955,70.084663 37.523861,69.919502 
	C35.539173,69.890495 33.569813,68.812790 31.222292,68.107986 
	C29.169214,70.790298 26.885464,70.034996 24.538691,67.176994 
	C23.801289,66.278954 22.561050,65.793800 21.550959,65.119667 
	C20.957424,66.179688 20.089640,67.180878 19.846125,68.315994 
	C19.593679,69.492729 19.946095,70.799225 20.029636,72.804268 
	C19.696646,77.777611 24.115498,78.146797 26.929493,80.702599 
	C25.325800,82.317055 23.722107,83.931519 22.118416,85.545975 
	C21.670227,85.364815 21.222040,85.183655 20.773851,85.002495 
	C21.160643,86.923172 21.547432,88.843857 21.805645,90.126068 
	C25.697521,89.311943 28.856241,88.651184 32.468925,88.516212 
	C34.073441,89.051689 35.677956,89.587173 36.933998,90.006355 
	C35.427780,91.337250 34.142246,92.473160 32.856709,93.609062 
	C33.135124,93.943726 33.413536,94.278389 33.691948,94.613052 
	C34.799252,94.371658 35.906559,94.130264 37.597069,94.253914 
	C39.110786,96.174789 40.484955,98.230644 42.176540,99.979469 
	C43.951180,101.814148 46.030170,103.354431 48.022343,105.807419 
	C47.713501,108.908318 49.702400,109.145927 52.650402,109.320427 
	C53.236610,110.450409 54.131908,111.522461 54.356365,112.720230 
	C55.417435,118.382431 58.795845,121.629662 64.529045,123.376190 
	C64.698616,123.729172 64.868195,124.082153 65.085648,124.559448 
	C65.085648,124.559448 65.220352,124.782066 65.661118,125.341286 
	C65.753410,125.559944 65.845711,125.778610 65.257965,125.996964 
	C64.831627,126.625832 64.405289,127.254707 63.978954,127.883583 
	C65.613724,128.052872 67.248497,128.222168 69.443718,128.259674 
	C69.633469,128.230972 69.823227,128.202255 70.519829,128.653671 
	C72.010849,127.658859 73.542656,126.718925 74.979561,125.651276 
	C76.064842,124.844872 77.028793,123.875191 78.043373,123.868805 
	C78.043373,125.444778 78.043373,127.020760 78.043373,128.929520 
	C89.088524,128.929520 99.483261,128.929520 110.571243,128.966293 
	C111.381531,128.657715 112.191811,128.349121 113.616524,128.054916 
	C114.025612,128.046341 114.434708,128.037781 115.434830,128.296860 
	C115.639793,128.365891 115.844749,128.434921 116.627800,128.948517 
	C117.081612,129.147659 117.544518,129.537170 117.987793,129.515991 
	C121.690781,129.339081 125.574715,129.670547 129.005051,128.586288 
	C130.498993,128.114090 130.802155,124.493889 132.166168,122.698486 
	C132.743271,121.938873 134.659927,122.196953 136.265366,122.589767 
	C136.358475,122.791786 136.451584,122.993797 135.764114,123.315887 
	C134.608566,128.905640 134.608566,128.905640 142.803314,127.752296 
	C143.575790,126.287315 144.199707,125.104111 145.534332,124.011627 
	C147.106766,125.340157 148.679199,126.668686 150.987915,128.203125 
	C154.443436,128.252808 157.909088,128.157013 161.351379,128.396729 
	C164.276428,128.600418 165.303818,127.150101 165.869766,124.581352 
	C166.873703,120.024704 168.121170,115.521721 169.661865,110.666496 
	C169.728180,110.338844 169.794479,110.011200 169.848038,109.109985 
	C169.956985,108.744934 170.065918,108.379883 170.884613,107.899963 
	C173.624405,105.329292 175.328598,102.549637 172.741653,98.248062 
	C172.877518,97.838951 173.013367,97.429832 173.957870,97.007721 
	C175.306381,96.997414 176.654907,96.987114 177.989258,97.788078 
	C178.032013,98.596153 178.074783,99.404228 178.288422,100.398048 
	C178.288422,100.398048 178.224503,100.642220 178.116745,101.430466 
	C178.101746,105.346680 180.690384,106.060844 183.924744,106.052132 
	C183.924744,106.052132 183.931305,106.142174 183.961136,106.960083 
	C184.622253,110.493256 182.730667,111.122856 179.747467,110.896835 
	C178.512512,110.803261 177.228180,111.361252 175.245316,111.981430 
	C173.542252,115.459526 170.547928,119.081459 173.627258,122.876747 
	C178.223831,128.542038 191.155029,130.483536 198.031403,127.033279 
	C198.031403,127.033279 198.072998,127.123711 198.732162,127.027626 
	C199.540009,126.366859 200.347870,125.706085 201.864304,124.987823 
	C202.240326,124.748947 202.616348,124.510071 203.428741,124.204109 
	C203.746552,123.930061 204.064377,123.656013 204.162186,123.174660 
	C204.162186,123.174660 204.334457,123.423050 205.002945,123.184891 
	C206.724319,119.793968 208.445694,116.403046 210.961121,113.008141 
	C214.420578,113.173683 217.257767,111.648438 216.748749,108.152550 
	C216.292465,105.018761 214.125610,102.134033 212.289566,99.044647 
	C212.005554,98.903244 211.843643,98.675163 211.699753,97.786575 
	C211.210709,97.527206 210.721680,97.267838 210.009583,97.047417 
	C210.009583,97.047417 209.947327,96.829727 209.768509,96.468056 
	C209.595459,96.246452 209.371582,96.105637 208.959351,96.036209 
	C208.959351,96.036209 208.951706,95.898598 208.755417,95.509140 
M237.985367,69.233772 
	C237.608032,64.863792 235.076614,64.361732 231.530121,65.479790 
	C231.695755,67.409737 231.846848,69.170113 231.191513,70.972000 
	C223.779770,71.542946 222.920853,73.094406 226.194839,78.492256 
	C225.418854,81.718704 224.784241,84.357353 223.805695,87.657951 
	C223.510910,89.102585 223.216141,90.547218 222.396118,92.430122 
	C221.500107,94.134354 220.339615,95.761803 219.813629,97.573463 
	C219.527283,98.559814 219.967529,100.282524 220.717331,100.903015 
	C221.539749,101.583580 223.134323,101.660774 224.323792,101.498306 
	C226.682739,101.176117 228.992859,100.060829 231.326080,100.052086 
	C259.449951,99.946709 287.574554,100.020927 315.698273,99.895111 
	C317.454895,99.887253 319.205841,98.603218 321.008057,97.443764 
	C321.008057,97.443764 321.154907,96.995537 321.617462,96.544289 
	C321.456207,95.364342 321.294952,94.184395 320.985291,92.585678 
	C320.985291,92.585678 320.883118,92.153290 320.950500,91.309189 
	C320.946930,90.179504 320.943359,89.049828 321.007538,87.447868 
	C321.007538,87.447868 321.135834,86.988335 321.599976,86.541878 
	C321.438721,85.367928 321.277435,84.193977 320.979797,82.590836 
	C320.979797,82.590836 320.882904,82.151070 320.951904,81.294792 
	C320.929840,80.150574 320.907776,79.006363 320.923950,77.055107 
	C320.899689,75.440704 320.875397,73.826302 320.428864,71.495865 
	C318.472992,71.321159 316.518860,71.017815 314.560974,70.991219 
	C289.039520,70.644485 263.517578,70.336983 237.985367,69.233772 
M217.408203,94.194489 
	C217.790802,94.198883 218.173401,94.203278 218.555984,94.207672 
	C218.557571,94.048843 218.569946,93.751999 218.559204,93.751160 
	C218.178497,93.721420 217.795639,93.719421 217.408203,94.194489 
M76.516716,128.412796 
	C76.516716,128.412796 76.581779,128.522369 76.516716,128.412796 
z"/>
<path fill="#ECECEC" opacity="1.000000" stroke="none" 
	d="
M1.000000,200.500000 
	C1.341052,200.073853 1.608751,200.255676 1.901548,200.772736 
	C1.666667,201.000000 1.333333,201.000000 1.000000,200.500000 
z"/>
<path fill="#EDEEF2" opacity="1.000000" stroke="none" 
	d="
M340.500000,201.000000 
	C340.090729,200.669800 340.274048,200.403305 340.774963,200.100250 
	C341.000000,200.333328 341.000000,200.666672 340.500000,201.000000 
z"/>
<path fill="#EDEEF2" opacity="1.000000" stroke="none" 
	d="
M341.000000,1.500000 
	C340.665344,1.916370 340.400726,1.732124 340.103088,1.223630 
	C340.333344,1.000000 340.666656,1.000000 341.000000,1.500000 
z"/>
<path fill="#ECECEC" opacity="1.000000" stroke="none" 
	d="
M1.500000,1.000000 
	C1.919134,1.336756 1.738152,1.606274 1.228526,1.904277 
	C1.000000,1.666667 1.000000,1.333333 1.500000,1.000000 
z"/>
<path fill="#05349F" opacity="1.000000" stroke="none" 
	d="
M136.544708,123.195816 
	C136.451584,122.993797 136.358475,122.791786 136.307693,121.909180 
	C136.671753,114.967026 136.993500,108.705475 137.315247,102.443916 
	C135.724167,102.992805 135.192093,103.724838 134.973083,104.540878 
	C133.310425,110.736008 131.865982,116.995979 129.976730,123.119499 
	C129.512451,124.624352 127.863922,126.408806 126.403297,126.830864 
	C123.069328,127.794250 119.514702,127.993988 116.049713,128.503952 
	C115.844749,128.434921 115.639793,128.365891 115.176620,127.827332 
	C114.920341,126.908493 114.922279,126.459175 115.097336,125.672203 
	C116.892471,118.919106 118.514496,112.503670 120.073868,106.066650 
	C120.011223,106.045059 120.115280,106.127121 120.342621,105.935616 
	C120.652962,105.169350 120.735954,104.594589 120.937073,103.759102 
	C121.086327,103.121292 121.117455,102.744202 121.402451,102.075638 
	C122.716812,97.519547 123.777298,93.254929 124.954071,88.720718 
	C125.089363,88.063011 125.108383,87.674904 125.390099,87.008453 
	C126.713661,82.482178 127.774513,78.234245 128.835373,73.986320 
	C128.937668,73.623077 129.039963,73.259842 129.452057,72.567688 
	C130.166336,72.221336 130.570816,72.203911 131.300079,72.443909 
	C133.266769,72.805519 134.908340,72.994064 136.550613,73.000191 
	C147.054947,73.039391 146.976761,73.026726 147.049179,83.781212 
	C147.071915,87.156120 147.639343,90.527359 148.145874,94.095490 
	C149.767120,91.850502 151.199951,89.410294 152.632782,86.970078 
	C152.743179,86.834694 152.853592,86.699318 153.261810,86.110840 
	C154.063248,84.455208 154.566879,83.252670 155.070511,82.050125 
	C155.070511,82.050125 154.991837,82.022980 155.212982,82.014824 
	C155.434143,82.006668 155.808411,81.931213 156.167236,81.829514 
	C157.357620,79.826469 158.189194,77.925125 159.009766,76.013046 
	C158.998779,76.002304 159.023819,76.015945 159.269348,75.826355 
	C159.627274,75.245651 159.739700,74.854530 159.839569,74.328033 
	C159.827026,74.192657 160.055130,74.044655 160.277893,73.899391 
	C160.623611,73.430847 160.746567,73.107567 160.875427,72.837357 
	C160.881317,72.890419 160.781448,72.852615 161.262085,72.905457 
	C166.823334,72.982559 171.903946,73.006813 176.987946,73.449677 
	C176.731430,76.998962 176.471527,80.129646 176.195038,83.256699 
	C176.178467,83.253052 176.228027,83.265785 175.890533,83.377121 
	C174.699234,85.713951 173.786758,87.919006 173.002350,90.168716 
	C170.449738,97.489563 170.687927,105.828537 164.667511,111.952637 
	C162.212921,110.264107 160.106979,108.633095 157.998169,106.588554 
	C158.407013,102.941673 158.818710,99.708328 159.230408,96.474983 
	C158.599045,96.287888 157.967697,96.100792 157.336334,95.913696 
	C156.232605,98.620422 155.128876,101.327141 154.013672,104.019264 
	C154.002182,104.004669 154.036301,104.015167 153.774231,104.184586 
	C153.353409,104.941322 153.194641,105.528648 152.999390,106.474319 
	C150.378143,111.932426 147.793365,117.032188 144.860931,122.142784 
	C142.751099,123.744461 140.988892,125.335312 138.952072,127.174088 
	C138.015656,125.626633 137.280182,124.411224 136.544708,123.195816 
z"/>
<path fill="#09369F" opacity="1.000000" stroke="none" 
	d="
M202.992371,124.271194 
	C202.616348,124.510071 202.240326,124.748947 201.135712,125.006203 
	C199.629089,125.724297 198.851044,126.424004 198.072998,127.123711 
	C198.072998,127.123711 198.031403,127.033279 197.600357,127.026718 
	C193.336411,127.012222 189.407043,127.525139 185.699844,126.838516 
	C182.490967,126.244202 178.984451,124.880035 176.663269,122.722481 
	C175.167282,121.331947 175.072647,117.831581 175.373734,115.403763 
	C175.495590,114.421165 178.346954,113.785271 179.947388,112.974083 
	C180.651474,112.617203 181.333420,112.216614 182.463806,111.728775 
	C185.345444,111.972198 188.712479,110.029976 189.572693,114.309387 
	C191.372147,113.835594 193.852127,113.913994 194.798355,112.747871 
	C195.973999,111.299004 195.881500,108.821114 196.481232,106.142174 
	C191.839569,106.142174 187.885437,106.142174 183.931305,106.142174 
	C183.931305,106.142174 183.924744,106.052132 183.750854,105.770584 
	C181.792801,103.873436 180.008652,102.257828 178.224503,100.642220 
	C178.224503,100.642220 178.288422,100.398048 178.402740,100.004227 
	C178.948044,97.734901 179.379044,95.859390 179.932404,93.678322 
	C180.085876,92.937378 180.116989,92.501984 180.413239,91.859085 
	C181.403366,89.007378 182.338043,86.399963 182.809494,83.711311 
	C183.780609,78.173042 190.848297,72.622330 196.448563,72.955513 
	C200.240875,73.181145 204.058151,72.991432 207.864212,72.978867 
	C209.052399,72.974937 210.482605,72.499344 211.389816,72.994659 
	C217.928391,76.564629 218.721695,78.903809 215.775330,86.015610 
	C213.359421,86.081863 210.848404,85.358002 210.637512,88.849472 
	C209.891876,88.874344 209.463974,88.834694 208.937683,88.443451 
	C206.539139,86.801064 204.361862,85.099083 201.896179,84.362122 
	C200.214920,83.859612 198.125168,84.677956 196.243973,85.040207 
	C196.159424,85.056488 196.331421,86.405022 196.368286,87.454941 
	C196.227783,88.179878 196.102905,88.582893 195.670700,89.026077 
	C195.264771,90.034172 195.166168,91.002075 195.292786,92.301422 
	C197.360321,92.757919 199.202637,92.882996 201.409424,93.083374 
	C202.505936,93.101921 203.238007,93.045174 203.970062,92.988419 
	C205.114731,93.603119 206.259399,94.217812 207.759781,95.191620 
	C208.334961,95.809082 208.613708,95.925034 208.951706,95.898598 
	C208.951706,95.898598 208.959351,96.036209 209.061890,96.266602 
	C209.337448,96.814766 209.598404,96.925674 209.947327,96.829727 
	C209.947327,96.829727 210.009583,97.047417 210.210297,97.287003 
	C210.875290,97.804535 211.339569,98.082474 211.803833,98.360405 
	C211.843643,98.675163 212.005554,98.903244 212.602127,99.464752 
	C212.341202,102.274574 211.767700,104.664307 210.862915,107.233482 
	C208.465912,112.749634 206.400192,118.086342 204.334457,123.423050 
	C204.334457,123.423050 204.162186,123.174660 204.032059,123.220978 
	C203.598740,123.601936 203.295563,123.936562 202.992371,124.271194 
M211.706436,83.565598 
	C211.990128,83.294350 212.276550,83.025650 212.542480,82.737976 
	C212.549454,82.730415 212.333176,82.516449 212.221008,82.398743 
	C211.937576,82.670090 211.654144,82.941429 211.706436,83.565598 
z"/>
<path fill="#F18819" opacity="1.000000" stroke="none" 
	d="
M321.154907,96.995537 
	C321.154907,96.995537 321.008057,97.443764 320.521851,97.745018 
	C287.769592,98.046272 255.503586,98.046272 222.493088,98.046272 
	C223.218109,95.442490 223.689453,93.749725 224.619293,92.071533 
	C257.012878,92.108505 288.947998,92.130898 320.883118,92.153290 
	C320.883118,92.153290 320.985291,92.585678 320.981384,93.189774 
	C321.036621,94.861092 321.095764,95.928314 321.154907,96.995537 
z"/>
<path fill="#EF871A" opacity="1.000000" stroke="none" 
	d="
M321.135803,86.988335 
	C321.135834,86.988335 321.007538,87.447868 320.512695,87.741852 
	C289.899384,88.060081 259.780853,88.100288 229.662460,88.062218 
	C228.127991,88.060280 226.594360,87.385017 225.240295,86.697250 
	C225.690704,82.289177 228.391815,81.993889 231.695663,81.996330 
	C261.116699,82.018105 290.537811,81.938370 320.181793,81.982712 
	C320.404694,82.076859 320.882904,82.151070 320.882904,82.151070 
	C320.882904,82.151070 320.979797,82.590836 320.967896,83.197342 
	C321.015930,84.865341 321.075867,85.926842 321.135803,86.988335 
z"/>
<path fill="#EF8817" opacity="1.000000" stroke="none" 
	d="
M320.851105,72.211899 
	C320.875397,73.826302 320.899689,75.440704 320.449829,77.529846 
	C316.495667,78.034081 313.015717,78.080620 309.535614,78.090309 
	C285.340424,78.157677 261.145203,78.217392 236.725616,78.214569 
	C236.501221,78.149567 236.052948,78.281311 235.620865,78.199348 
	C233.141083,78.138397 231.093399,78.159401 228.773056,77.932037 
	C227.919586,74.050690 229.047119,72.046486 233.146179,72.060768 
	C262.380981,72.162613 291.616089,72.172661 320.851105,72.211899 
z"/>
<path fill="#FFF5CC" opacity="1.000000" stroke="none" 
	d="
M225.060349,87.023254 
	C226.594360,87.385017 228.127991,88.060280 229.662460,88.062218 
	C259.780853,88.100288 289.899384,88.060081 320.478821,87.977997 
	C320.943359,89.049828 320.946930,90.179504 320.916809,91.731239 
	C288.947998,92.130898 257.012878,92.108505 224.309204,92.056183 
	C223.334198,92.014778 223.127777,92.003311 222.921356,91.991852 
	C223.216141,90.547218 223.510910,89.102585 224.204498,87.332680 
	C224.603302,87.007408 225.060349,87.023254 225.060349,87.023254 
z"/>
<path fill="#F8F9F2" opacity="1.000000" stroke="none" 
	d="
M78.046753,122.978180 
	C77.028793,123.875191 76.064842,124.844872 74.979561,125.651276 
	C73.542656,126.718925 72.010849,127.658859 70.304092,128.028702 
	C69.741310,125.545006 69.394257,123.686287 69.047234,121.453346 
	C69.299248,120.513931 69.394020,119.670326 69.827080,119.425774 
	C75.253441,116.361450 75.456146,114.382332 70.765083,110.556099 
	C70.484146,110.326942 70.936943,109.198219 71.421738,108.390862 
	C72.814545,108.157692 73.833923,108.021736 75.200500,107.920395 
	C76.360641,107.639633 77.173584,107.324272 78.357857,106.998222 
	C79.404152,106.370850 80.079117,105.754166 80.754089,105.137482 
	C79.831062,104.755051 78.908043,104.372612 77.942490,103.635590 
	C77.873192,101.443695 77.846428,99.606392 77.859482,97.419594 
	C77.921104,95.377876 77.942917,93.685654 77.866623,91.728386 
	C77.857880,90.474083 77.947243,89.484833 78.359650,88.409958 
	C79.126564,88.296539 79.570427,88.268745 79.992561,88.464684 
	C79.970825,88.688408 80.001106,89.136955 80.001099,89.136955 
	C80.191132,91.693321 80.414337,94.247833 80.557755,96.806816 
	C80.633774,98.163193 80.571213,99.527336 81.530235,100.944885 
	C81.884132,93.628540 89.629662,88.662148 87.154663,80.537743 
	C86.068901,76.973625 88.363770,74.270210 92.546127,73.426956 
	C92.967995,73.684990 93.009956,73.857063 92.923912,74.220345 
	C92.632996,74.701210 92.616020,74.999214 92.510605,75.519440 
	C92.233528,76.146477 92.190834,76.559608 92.003006,77.328110 
	C90.221260,84.113289 88.584648,90.543091 86.729462,97.162766 
	C86.417992,97.911575 86.325104,98.470512 86.078384,99.381973 
	C83.890427,107.145210 81.856300,114.555916 79.552513,122.000931 
	C78.870819,122.349548 78.458786,122.663864 78.046753,122.978180 
z"/>
<path fill="#E7F4FB" opacity="1.000000" stroke="none" 
	d="
M216.185898,86.027260 
	C218.721695,78.903809 217.928391,76.564629 211.389816,72.994659 
	C210.482605,72.499344 209.052399,72.974937 207.864212,72.978867 
	C204.058151,72.991432 200.240875,73.181145 196.448563,72.955513 
	C190.848297,72.622330 183.780609,78.173042 182.809494,83.711311 
	C182.338043,86.399963 181.403366,89.007378 180.110580,91.619980 
	C179.677444,89.862099 179.872086,88.137848 179.931290,86.408966 
	C180.001724,84.352417 180.691330,81.826065 177.130569,81.643509 
	C177.518631,79.418610 177.934891,77.557716 178.576538,75.315117 
	C179.717041,72.390526 178.517334,71.908081 176.217606,71.964951 
	C171.148544,72.090302 166.074203,72.003029 160.949554,71.941391 
	C160.897095,71.880264 160.799713,71.751884 160.799713,71.751884 
	C162.165558,70.839294 163.448608,69.345886 164.914764,69.136848 
	C167.831055,68.721069 170.850067,69.079628 173.823029,68.993507 
	C177.360016,68.891052 180.643799,68.536278 181.880783,73.333130 
	C182.531128,75.855080 184.741943,76.544167 187.281006,74.341087 
	C189.461716,72.448952 192.146683,71.137985 195.282532,69.291389 
	C200.637207,69.011086 205.318054,69.009415 209.998886,69.007751 
	C213.247559,71.443787 216.594711,73.764381 219.678223,76.394073 
	C220.486069,77.083046 221.085083,78.962807 220.730453,79.897484 
	C219.502075,83.134926 217.811310,86.196915 216.127396,88.711700 
	C216.034149,87.407578 216.110031,86.717415 216.185898,86.027260 
z"/>
<path fill="#133A94" opacity="1.000000" stroke="none" 
	d="
M165.016144,112.010147 
	C170.687927,105.828537 170.449738,97.489563 173.002350,90.168716 
	C173.786758,87.919006 174.699234,85.713951 175.880478,83.769020 
	C175.188339,88.373299 174.168777,92.697014 173.149216,97.020721 
	C173.013367,97.429832 172.877518,97.838951 172.482880,98.841362 
	C171.541031,102.294716 170.857941,105.154770 170.174850,108.014824 
	C170.065918,108.379883 169.956985,108.744934 169.632904,109.544327 
	C169.367416,110.317879 169.317078,110.657089 169.266724,110.996292 
	C168.121170,115.521721 166.873703,120.024704 165.869766,124.581352 
	C165.303818,127.150101 164.276428,128.600418 161.351379,128.396729 
	C157.909088,128.157013 154.443436,128.252808 150.717941,127.743492 
	C152.105087,120.233620 153.803513,113.192360 155.341614,106.116249 
	C155.465881,105.544518 154.489883,104.733620 154.025162,104.033859 
	C155.128876,101.327141 156.232605,98.620422 157.336334,95.913696 
	C157.967697,96.100792 158.599045,96.287888 159.230408,96.474983 
	C158.818710,99.708328 158.407013,102.941673 158.162201,106.970230 
	C158.329071,113.334999 158.329071,118.904572 158.329071,125.397614 
	C159.794037,124.462433 162.216263,123.793015 162.738708,122.407333 
	C163.977234,119.122345 164.314545,115.497574 165.016144,112.010147 
z"/>
<path fill="#FFF5CC" opacity="1.000000" stroke="none" 
	d="
M236.950012,78.279564 
	C261.145203,78.217392 285.340424,78.157677 309.535614,78.090309 
	C313.015717,78.080620 316.495667,78.034081 320.430725,77.933365 
	C320.907776,79.006363 320.929840,80.150574 320.917419,81.722931 
	C320.882904,82.151070 320.404694,82.076859 319.875916,81.708847 
	C317.535767,81.227631 315.724548,81.017288 313.913116,81.015823 
	C287.658752,80.994591 261.404358,80.991699 235.150009,81.016914 
	C232.625854,81.019333 230.048111,81.354622 229.045700,78.180412 
	C231.093399,78.159401 233.141083,78.138397 235.709656,78.319374 
	C236.230545,78.521362 236.637451,78.581184 236.637451,78.581184 
	C236.637451,78.581184 236.950012,78.279564 236.950012,78.279564 
z"/>
<path fill="#FDFCFD" opacity="1.000000" stroke="none" 
	d="
M125.127396,87.286797 
	C125.108383,87.674904 125.089363,88.063011 124.606041,88.793816 
	C120.351379,92.914940 120.959106,97.688339 121.148582,102.367119 
	C121.117455,102.744202 121.086327,103.121292 120.710052,103.952728 
	C120.281693,104.980431 120.198486,105.553772 120.115280,106.127121 
	C120.115280,106.127121 120.011223,106.045059 119.707573,106.094788 
	C117.280281,112.058289 115.115669,117.958191 113.103111,123.909515 
	C112.922874,124.442490 113.727898,125.308662 113.947586,126.278404 
	C113.547241,127.037994 113.274666,127.539268 113.002098,128.040543 
	C112.191811,128.349121 111.381531,128.657715 110.281158,128.606384 
	C109.990463,124.829430 109.989861,121.412376 109.985703,117.682915 
	C110.267105,116.376518 110.552063,115.382545 110.701019,114.033401 
	C106.645241,112.767746 102.725471,111.857254 98.813766,110.614944 
	C98.949120,109.861092 99.076416,109.439049 99.542358,108.971893 
	C102.304947,108.619843 104.731522,108.045906 107.152229,108.069611 
	C110.638252,108.103737 113.676254,108.055862 115.100861,103.932793 
	C116.155968,100.879135 119.770905,96.367554 118.934509,95.416107 
	C115.654099,91.684502 119.497063,88.690399 118.754288,85.365189 
	C118.710846,85.214363 118.928719,84.988358 119.322311,84.911346 
	C120.103851,82.453323 120.491791,80.072311 120.854111,77.506546 
	C120.828484,77.321808 121.041840,77.015831 121.391144,76.972198 
	C125.532021,75.441597 125.884163,77.746346 125.699051,80.559616 
	C125.551315,82.804825 125.321037,85.044609 125.127396,87.286797 
z"/>
<path fill="#E78C25" opacity="1.000000" stroke="none" 
	d="
M83.406532,77.103653 
	C83.320511,77.251930 83.234497,77.400200 82.615852,77.825806 
	C65.447525,78.100983 48.808002,77.898781 32.178448,78.217285 
	C27.120304,78.314171 23.879822,76.835396 22.608696,72.114243 
	C42.249496,72.034714 61.431316,71.958115 80.613098,71.967033 
	C81.831558,71.967598 83.049713,72.632744 84.141907,73.320923 
	C83.812721,74.803307 83.609627,75.953476 83.406532,77.103653 
M63.499123,73.972542 
	C52.374771,73.826103 41.250591,73.650421 30.125769,73.586510 
	C29.194765,73.581161 28.259439,74.328186 27.326122,74.725662 
	C28.232277,75.459824 29.135141,76.808609 30.045198,76.813477 
	C32.830387,76.828392 35.616600,76.087646 38.405514,76.067360 
	C51.211182,75.974228 64.017960,76.044228 76.824165,76.003075 
	C78.377747,75.998077 79.930305,75.674957 81.483337,75.499283 
	C81.431419,74.990341 81.379509,74.481407 81.327591,73.972466 
	C75.717804,73.972466 70.108017,73.972466 63.499123,73.972542 
z"/>
<path fill="#FFF3CA" opacity="1.000000" stroke="none" 
	d="
M228.773056,77.932037 
	C230.048111,81.354622 232.625854,81.019333 235.150009,81.016914 
	C261.404358,80.991699 287.658752,80.994591 313.913116,81.015823 
	C315.724548,81.017288 317.535767,81.227631 319.653015,81.614700 
	C290.537811,81.938370 261.116699,82.018105 231.695663,81.996330 
	C228.391815,81.993889 225.690704,82.289177 225.240295,86.697250 
	C225.060349,87.023254 224.603302,87.007408 224.376465,87.001709 
	C224.784241,84.357353 225.418854,81.718704 226.194839,78.492256 
	C222.920853,73.094406 223.779770,71.542946 231.974396,70.932053 
	C234.503418,70.601265 236.249573,70.310432 237.995728,70.019600 
	C263.517578,70.336983 289.039520,70.644485 314.560974,70.991219 
	C316.518860,71.017815 318.472992,71.321159 320.639984,71.853882 
	C291.616089,72.172661 262.380981,72.162613 233.146179,72.060768 
	C229.047119,72.046486 227.919586,74.050690 228.773056,77.932037 
z"/>
<path fill="#F9F1DC" opacity="1.000000" stroke="none" 
	d="
M222.658737,92.210983 
	C223.127777,92.003311 223.334198,92.014778 223.850708,92.041611 
	C223.689453,93.749725 223.218109,95.442490 222.493088,98.046272 
	C255.503586,98.046272 287.769592,98.046272 320.497498,97.979599 
	C319.205841,98.603218 317.454895,99.887253 315.698273,99.895111 
	C287.574554,100.020927 259.449951,99.946709 231.326080,100.052086 
	C228.992859,100.060829 226.682739,101.176117 224.323792,101.498306 
	C223.134323,101.660774 221.539749,101.583580 220.717331,100.903015 
	C219.967529,100.282524 219.527283,98.559814 219.813629,97.573463 
	C220.339615,95.761803 221.500107,94.134354 222.658737,92.210983 
z"/>
<path fill="#F8F9F2" opacity="1.000000" stroke="none" 
	d="
M84.268005,72.988716 
	C83.049713,72.632744 81.831558,71.967598 80.613098,71.967033 
	C61.431316,71.958115 42.249496,72.034714 22.258904,72.061356 
	C20.978067,72.037018 20.506014,72.042992 20.033962,72.048965 
	C19.946095,70.799225 19.593679,69.492729 19.846125,68.315994 
	C20.089640,67.180878 20.957424,66.179688 21.550961,65.119667 
	C22.561050,65.793800 23.801289,66.278954 24.538691,67.176994 
	C26.885464,70.034996 29.169214,70.790298 31.222292,68.107986 
	C33.569813,68.812790 35.539173,69.890495 37.523861,69.919502 
	C48.824955,70.084663 60.130066,70.052246 71.433060,69.976303 
	C76.659470,69.941200 82.552917,71.643082 85.556702,64.378044 
	C86.489761,67.759010 90.095428,70.248383 85.267151,72.939774 
	C84.696625,72.972664 84.268005,72.988716 84.268005,72.988716 
z"/>
<path fill="#F8F9F2" opacity="1.000000" stroke="none" 
	d="
M83.030853,79.085556 
	C86.489746,82.327171 83.157562,86.230438 84.067017,89.720444 
	C83.474701,89.612823 82.882378,89.505196 82.129929,88.705978 
	C81.298897,85.345589 84.275154,80.899734 78.153778,80.947250 
	C62.734821,81.066917 47.314266,80.975105 31.894594,81.032692 
	C31.371836,81.034637 30.851669,81.731232 30.362953,82.393723 
	C30.997868,83.677101 31.600122,84.670799 32.140980,86.049248 
	C32.058041,86.952812 32.036503,87.471626 32.014961,87.990433 
	C28.856241,88.651184 25.697521,89.311943 21.805645,90.126068 
	C21.547432,88.843857 21.160643,86.923172 20.773851,85.002495 
	C21.222040,85.183655 21.670227,85.364815 22.118416,85.545975 
	C23.722107,83.931519 25.325800,82.317055 27.387913,80.337540 
	C30.633522,79.667099 33.419483,79.111481 36.208096,79.097824 
	C51.815331,79.021370 67.423203,79.075813 83.030853,79.085556 
z"/>
<path fill="#FEF1CB" opacity="1.000000" stroke="none" 
	d="
M32.241943,88.253326 
	C32.036503,87.471626 32.058041,86.952812 32.489082,86.223976 
	C35.169373,86.726906 37.426521,88.003998 39.713211,88.059303 
	C52.483730,88.368095 65.261391,88.381332 78.036606,88.495583 
	C77.947243,89.484833 77.857880,90.474083 77.404732,91.784348 
	C64.471436,92.136505 51.901928,92.167641 38.992355,92.171478 
	C38.106144,92.725739 37.560005,93.307304 37.013863,93.888870 
	C35.906559,94.130264 34.799252,94.371658 33.691948,94.613052 
	C33.413536,94.278389 33.135124,93.943726 32.856709,93.609062 
	C34.142246,92.473160 35.427780,91.337250 36.933998,90.006355 
	C35.677956,89.587173 34.073441,89.051689 32.241943,88.253326 
z"/>
<path fill="#FEEEC9" opacity="1.000000" stroke="none" 
	d="
M37.305466,94.071396 
	C37.560005,93.307304 38.106144,92.725739 39.066628,92.485275 
	C41.646847,94.568871 43.753857,97.720528 45.988613,97.813873 
	C56.579861,98.256264 67.205971,97.864014 77.819664,97.769089 
	C77.846428,99.606392 77.873192,101.443695 77.940506,104.013031 
	C77.982872,105.499680 77.984703,106.254295 77.986534,107.008911 
	C77.173584,107.324272 76.360641,107.639633 75.250427,107.534256 
	C75.282394,105.609772 75.611641,104.106033 76.049698,102.105293 
	C66.984222,102.105293 58.692413,102.055862 50.404198,102.205627 
	C49.787281,102.216782 49.196175,103.656456 48.438812,104.579849 
	C48.284554,104.727654 47.976147,105.023384 47.976151,105.023384 
	C46.030170,103.354431 43.951180,101.814148 42.176540,99.979469 
	C40.484955,98.230644 39.110786,96.174789 37.305466,94.071396 
z"/>
<path fill="#FEEBBD" opacity="1.000000" stroke="none" 
	d="
M71.048309,108.488083 
	C70.936943,109.198219 70.484146,110.326942 70.765083,110.556099 
	C75.456146,114.382332 75.253441,116.361450 69.827080,119.425774 
	C69.394020,119.670326 69.299248,120.513931 68.688492,121.524475 
	C66.992744,122.255943 65.655777,122.542076 64.318817,122.828217 
	C58.795845,121.629662 55.417435,118.382431 54.356365,112.720230 
	C54.131908,111.522461 53.236610,110.450409 52.322639,108.920166 
	C51.994881,108.519913 51.994595,108.040596 52.462990,108.026459 
	C58.970364,108.170914 65.009338,108.329498 71.048309,108.488083 
M64.168785,112.089348 
	C61.734249,112.089348 59.299713,112.089348 56.634914,112.089348 
	C59.052052,117.753990 64.264854,119.992043 70.342705,117.796799 
	C71.774971,117.279480 72.463142,114.702019 73.895393,112.436859 
	C70.581581,112.169083 68.775658,112.023148 66.981506,111.208633 
	C66.620285,110.634789 66.259071,110.060944 65.897850,109.487099 
	C65.605606,110.290024 65.313354,111.092941 64.168785,112.089348 
z"/>
<path fill="#F7FEFB" opacity="1.000000" stroke="none" 
	d="
M93.049568,72.127136 
	C92.458305,69.963135 91.867035,67.799141 91.452232,66.280975 
	C97.758957,66.526634 103.870018,66.729431 109.975952,67.034744 
	C111.085045,67.090195 112.161949,67.624283 113.273170,67.834648 
	C116.034271,68.357376 118.835030,68.707184 121.554482,69.387695 
	C122.235535,69.558128 122.669678,70.715286 122.828186,71.719017 
	C122.253334,72.032784 122.067604,72.046471 121.421677,72.026924 
	C111.657501,72.038170 102.353539,72.082649 93.049568,72.127136 
z"/>
<path fill="#D4E6FA" opacity="1.000000" stroke="none" 
	d="
M116.338760,128.726227 
	C119.514702,127.993988 123.069328,127.794250 126.403297,126.830864 
	C127.863922,126.408806 129.512451,124.624352 129.976730,123.119499 
	C131.865982,116.995979 133.310425,110.736008 134.973083,104.540878 
	C135.192093,103.724838 135.724167,102.992805 137.315247,102.443916 
	C136.993500,108.705475 136.671753,114.967026 136.158875,121.610527 
	C134.659927,122.196953 132.743271,121.938873 132.166168,122.698486 
	C130.802155,124.493889 130.498993,128.114090 129.005051,128.586288 
	C125.574715,129.670547 121.690781,129.339081 117.987793,129.515991 
	C117.544518,129.537170 117.081612,129.147659 116.338760,128.726227 
z"/>
<path fill="#E7F4FB" opacity="1.000000" stroke="none" 
	d="
M152.243881,86.968048 
	C151.199951,89.410294 149.767120,91.850502 148.195404,93.640228 
	C148.056549,86.069221 148.056549,79.148689 148.056549,72.186485 
	C141.926880,72.186485 136.451096,72.186485 130.975311,72.186485 
	C130.570816,72.203911 130.166336,72.221336 129.459427,72.283524 
	C129.407928,68.981941 130.889175,67.886101 134.406052,68.535919 
	C137.761581,69.155937 141.378448,69.344681 144.723587,68.785217 
	C148.765533,68.109238 149.875778,70.076447 149.919800,73.233345 
	C149.960693,76.164886 149.360352,79.099609 149.215210,82.041466 
	C149.112289,84.127716 147.827682,87.024734 152.243881,86.968048 
z"/>
<path fill="#DBE9F7" opacity="1.000000" stroke="none" 
	d="
M183.946228,106.551132 
	C187.885437,106.142174 191.839569,106.142174 196.481232,106.142174 
	C195.881500,108.821114 195.973999,111.299004 194.798355,112.747871 
	C193.852127,113.913994 191.372147,113.835594 189.572693,114.309387 
	C188.712479,110.029976 185.345444,111.972198 182.041901,111.621246 
	C179.443161,111.621506 177.704742,111.622208 175.966309,111.622917 
	C177.228180,111.361252 178.512512,110.803261 179.747467,110.896835 
	C182.730667,111.122856 184.622253,110.493256 183.946228,106.551132 
z"/>
<path fill="#E5F1FA" opacity="1.000000" stroke="none" 
	d="
M154.013672,104.019264 
	C154.489883,104.733620 155.465881,105.544518 155.341614,106.116249 
	C153.803513,113.192360 152.105087,120.233620 150.349792,127.640533 
	C148.679199,126.668686 147.106766,125.340157 145.253326,123.669350 
	C145.051056,122.928696 145.129807,122.530327 145.208588,122.131958 
	C147.793365,117.032188 150.378143,111.932426 153.279175,106.326279 
	C153.742401,105.218307 153.889343,104.616737 154.036285,104.015167 
	C154.036301,104.015167 154.002182,104.004669 154.013672,104.019264 
z"/>
<path fill="#FEF1CB" opacity="1.000000" stroke="none" 
	d="
M83.047684,78.825790 
	C67.423203,79.075813 51.815331,79.021370 36.208096,79.097824 
	C33.419483,79.111481 30.633522,79.667099 27.424271,79.986496 
	C24.115498,78.146797 19.696646,77.777611 20.031799,72.426620 
	C20.506014,72.042992 20.978067,72.037018 21.799911,72.083923 
	C23.879822,76.835396 27.120304,78.314171 32.178448,78.217285 
	C48.808002,77.898781 65.447525,78.100983 82.552902,78.075111 
	C83.036568,78.220070 83.050545,78.393044 83.047684,78.825790 
z"/>
<path fill="#11388E" opacity="1.000000" stroke="none" 
	d="
M175.605804,111.802170 
	C177.704742,111.622208 179.443161,111.621506 181.603516,111.728333 
	C181.333420,112.216614 180.651474,112.617203 179.947388,112.974083 
	C178.346954,113.785271 175.495590,114.421165 175.373734,115.403763 
	C175.072647,117.831581 175.167282,121.331947 176.663269,122.722481 
	C178.984451,124.880035 182.490967,126.244202 185.699844,126.838516 
	C189.407043,127.525139 193.336411,127.012222 197.644623,127.049454 
	C191.155029,130.483536 178.223831,128.542038 173.627258,122.876747 
	C170.547928,119.081459 173.542252,115.459526 175.605804,111.802170 
z"/>
<path fill="#FEF1CB" opacity="1.000000" stroke="none" 
	d="
M30.330294,82.104034 
	C30.851669,81.731232 31.371836,81.034637 31.894594,81.032692 
	C47.314266,80.975105 62.734821,81.066917 78.153778,80.947250 
	C84.275154,80.899734 81.298897,85.345589 81.968582,88.452255 
	C81.529381,88.935455 81.091415,88.980789 80.327271,89.081535 
	C80.001106,89.136955 79.970825,88.688408 80.155998,88.079346 
	C80.619751,85.882072 80.898331,84.293846 81.177658,82.701347 
	C80.247749,82.413177 79.784264,82.144638 79.320297,82.143822 
	C62.990326,82.114983 46.660305,82.111275 30.330294,82.104034 
z"/>
<path fill="#CDDFF7" opacity="1.000000" stroke="none" 
	d="
M109.989258,117.995331 
	C109.989861,121.412376 109.990463,124.829430 109.934525,128.587997 
	C99.483261,128.929520 89.088524,128.929520 78.043373,128.929520 
	C78.043373,127.020760 78.043373,125.444778 78.045059,123.423492 
	C78.458786,122.663864 78.870819,122.349548 79.562851,122.414246 
	C79.486877,124.440369 79.130913,126.087479 78.728012,127.951775 
	C85.230255,127.951775 91.091591,127.951775 97.227173,128.017349 
	C97.684006,128.038269 97.866608,127.993622 98.455185,128.037704 
	C100.245941,128.072800 101.630730,128.019150 103.340897,128.042343 
	C104.106117,128.068100 104.545952,128.017014 105.372208,128.035416 
	C107.168839,124.735046 108.579048,121.365189 109.989258,117.995331 
z"/>
<path fill="#E7F4FB" opacity="1.000000" stroke="none" 
	d="
M211.194214,107.054039 
	C211.767700,104.664307 212.341202,102.274574 212.814041,99.512138 
	C214.125610,102.134033 216.292465,105.018761 216.748749,108.152550 
	C217.257767,111.648438 214.420578,113.173683 210.531235,112.631577 
	C210.465637,110.521355 210.829926,108.787697 211.194214,107.054039 
z"/>
<path fill="#19377D" opacity="1.000000" stroke="none" 
	d="
M93.020813,72.357803 
	C102.353539,72.082649 111.657501,72.038170 121.416489,72.388458 
	C121.594948,74.194084 121.318390,75.604958 121.041840,77.015831 
	C121.041840,77.015831 120.828484,77.321808 120.600548,77.750359 
	C119.983376,79.247269 119.594139,80.315636 119.140495,80.934723 
	C118.433632,78.117500 117.861916,73.718262 117.137878,73.693047 
	C109.122849,73.413956 101.084183,73.813301 93.051910,74.029144 
	C93.009956,73.857063 92.967995,73.684990 92.853088,73.257584 
	C92.780144,73.002266 92.992058,72.588463 93.020813,72.357803 
z"/>
<path fill="#E5F1FA" opacity="1.000000" stroke="none" 
	d="
M121.391144,76.972198 
	C121.318390,75.604958 121.594948,74.194084 121.876694,72.421692 
	C122.067604,72.046471 122.253334,72.032784 122.718262,72.010918 
	C123.873375,74.784576 125.557739,75.560478 128.493439,74.033142 
	C127.774513,78.234245 126.713661,82.482178 125.390099,87.008453 
	C125.321037,85.044609 125.551315,82.804825 125.699051,80.559616 
	C125.884163,77.746346 125.532021,75.441597 121.391144,76.972198 
z"/>
<path fill="#E5F1FA" opacity="1.000000" stroke="none" 
	d="
M173.553543,97.014221 
	C174.168777,92.697014 175.188339,88.373299 176.217957,83.657684 
	C176.228027,83.265785 176.178467,83.253052 176.391312,83.192451 
	C176.604156,83.131851 176.981522,82.962639 177.008957,83.417557 
	C177.355591,87.264481 177.674774,90.656479 177.995026,94.414886 
	C177.998520,95.513130 178.000961,96.244972 178.003418,96.976807 
	C176.654907,96.987114 175.306381,96.997414 173.553543,97.014221 
z"/>
<path fill="#284899" opacity="1.000000" stroke="none" 
	d="
M144.860931,122.142776 
	C145.129807,122.530327 145.051056,122.928696 144.897949,123.623993 
	C144.199707,125.104111 143.575790,126.287315 142.803314,127.752296 
	C134.608566,128.905640 134.608566,128.905640 136.154419,123.255852 
	C137.280182,124.411224 138.015656,125.626633 138.952072,127.174088 
	C140.988892,125.335312 142.751099,123.744461 144.860931,122.142776 
z"/>
<path fill="#FDFCFD" opacity="1.000000" stroke="none" 
	d="
M209.912201,68.614655 
	C205.318054,69.009415 200.637207,69.011086 195.493774,69.017410 
	C195.370590,68.303215 195.754089,66.941757 196.042847,66.961563 
	C200.644226,67.277206 205.233475,67.769554 209.912201,68.614655 
z"/>
<path fill="#F7FEFB" opacity="1.000000" stroke="none" 
	d="
M237.990540,69.626678 
	C236.249573,70.310432 234.503418,70.601265 232.377594,70.911301 
	C231.846848,69.170113 231.695755,67.409737 231.530121,65.479790 
	C235.076614,64.361732 237.608032,64.863792 237.990540,69.626678 
z"/>
<path fill="#11388E" opacity="1.000000" stroke="none" 
	d="
M196.383926,87.133026 
	C196.331421,86.405022 196.159424,85.056488 196.243973,85.040207 
	C198.125168,84.677956 200.214920,83.859612 201.896179,84.362122 
	C204.361862,85.099083 206.539139,86.801064 208.601837,88.519730 
	C207.914047,89.015556 207.463715,89.083496 207.013397,89.151436 
	C206.566513,89.102898 206.119644,89.054352 204.974564,88.981735 
	C203.523926,88.970810 202.771469,88.983955 202.011841,88.995163 
	C202.004639,88.993210 201.992264,88.985123 201.899155,88.601036 
	C200.751251,84.091011 198.586197,85.518944 196.383926,87.133026 
z"/>
<path fill="#E89746" opacity="1.000000" stroke="none" 
	d="
M64.423935,123.102203 
	C65.655777,122.542076 66.992744,122.255943 68.688461,121.898689 
	C69.394257,123.686287 69.741310,125.545006 70.050667,127.788643 
	C69.823227,128.202255 69.633469,128.230972 68.943161,128.091888 
	C67.607735,127.281822 66.772873,126.639549 65.938011,125.997284 
	C65.845711,125.778610 65.753410,125.559944 65.537476,124.983093 
	C65.413841,124.624901 65.037766,124.435135 65.037766,124.435135 
	C64.868195,124.082153 64.698616,123.729172 64.423935,123.102203 
z"/>
<path fill="#11388E" opacity="1.000000" stroke="none" 
	d="
M210.862930,107.233482 
	C210.829926,108.787697 210.465637,110.521355 210.134216,112.633568 
	C208.445694,116.403046 206.724319,119.793968 204.668701,123.303970 
	C206.400192,118.086342 208.465912,112.749634 210.862930,107.233482 
z"/>
<path fill="#E7F4FB" opacity="1.000000" stroke="none" 
	d="
M155.808411,81.931213 
	C155.808411,81.931213 155.434143,82.006668 155.246399,82.040794 
	C154.666733,77.658134 156.205109,74.198769 160.450378,71.830307 
	C160.799713,71.751884 160.897095,71.880264 160.875122,72.148911 
	C160.853165,72.417557 160.781448,72.852615 160.781448,72.852615 
	C160.781448,72.852615 160.881317,72.890419 160.622375,72.951324 
	C160.260666,73.356369 160.157898,73.700508 160.055115,74.044655 
	C160.055130,74.044655 159.827026,74.192657 159.584534,74.510468 
	C159.235962,75.224174 159.129883,75.620056 159.023819,76.015945 
	C159.023819,76.015945 158.998779,76.002304 158.740906,76.218315 
	C157.591476,78.266624 156.699951,80.098915 155.808411,81.931213 
z"/>
<path fill="#E5F1FA" opacity="1.000000" stroke="none" 
	d="
M170.529724,107.957397 
	C170.857941,105.154770 171.541031,102.294716 172.462830,99.165321 
	C175.328598,102.549637 173.624405,105.329292 170.529724,107.957397 
z"/>
<path fill="#DBE9F7" opacity="1.000000" stroke="none" 
	d="
M178.170624,101.036346 
	C180.008652,102.257828 181.792801,103.873436 183.708710,105.786781 
	C180.690384,106.060844 178.101746,105.346680 178.170624,101.036346 
z"/>
<path fill="#F9F1DC" opacity="1.000000" stroke="none" 
	d="
M203.859528,92.732460 
	C203.238007,93.045174 202.505936,93.101921 201.212738,92.808647 
	C199.819580,91.694588 198.987595,90.930550 197.471115,89.537933 
	C199.646774,89.271912 200.819519,89.128517 201.992264,88.985123 
	C201.992264,88.985123 202.004639,88.993210 202.017578,89.291718 
	C202.336700,90.063110 202.642868,90.536003 202.949036,91.008896 
	C203.215683,91.498093 203.482330,91.987297 203.859528,92.732460 
z"/>
<path fill="#11388E" opacity="1.000000" stroke="none" 
	d="
M215.775330,86.015610 
	C216.110031,86.717415 216.034149,87.407578 215.943008,88.446121 
	C215.497238,88.860184 215.066742,88.925865 213.942856,88.980728 
	C212.484726,88.908264 211.719971,88.846611 210.955231,88.784950 
	C210.848404,85.358002 213.359421,86.081863 215.775330,86.015610 
z"/>
<path fill="#F8F9F2" opacity="1.000000" stroke="none" 
	d="
M65.597992,125.997124 
	C66.772873,126.639549 67.607735,127.281822 68.662933,128.157776 
	C67.248497,128.222168 65.613724,128.052872 63.978951,127.883583 
	C64.405289,127.254707 64.831627,126.625832 65.597992,125.997124 
z"/>
<path fill="#E7F4FB" opacity="1.000000" stroke="none" 
	d="
M210.637512,88.849472 
	C211.719971,88.846611 212.484726,88.908264 213.624146,89.054291 
	C212.124222,92.918427 209.737640,90.456703 207.251038,89.412064 
	C207.463715,89.083496 207.914047,89.015556 208.700211,88.871338 
	C209.463974,88.834694 209.891876,88.874344 210.637512,88.849472 
z"/>
<path fill="#FEEEC9" opacity="1.000000" stroke="none" 
	d="
M51.994591,108.040596 
	C51.994595,108.040596 51.994881,108.519913 51.997303,108.759552 
	C49.702400,109.145927 47.713501,108.908318 47.999245,105.415405 
	C47.976147,105.023384 48.284554,104.727654 48.643021,104.814491 
	C49.999191,105.947754 50.996891,106.994179 51.994591,108.040596 
z"/>
<path fill="#E7F4FB" opacity="1.000000" stroke="none" 
	d="
M177.996338,97.382446 
	C178.000961,96.244972 177.998520,95.513130 178.297424,94.394547 
	C179.002533,93.999817 179.406296,93.991844 179.810059,93.983871 
	C179.379044,95.859390 178.948044,97.734901 178.317291,99.911362 
	C178.074783,99.404228 178.032013,98.596153 177.996338,97.382446 
z"/>
<path fill="#FEF1CB" opacity="1.000000" stroke="none" 
	d="
M84.141907,73.320923 
	C84.268005,72.988716 84.696625,72.972664 84.911148,72.994888 
	C84.768791,74.306229 84.411911,75.595337 83.730782,76.994049 
	C83.609627,75.953476 83.812721,74.803307 84.141907,73.320923 
z"/>
<path fill="#E7F4FB" opacity="1.000000" stroke="none" 
	d="
M154.703064,82.095581 
	C154.566879,83.252670 154.063248,84.455208 153.292603,85.850632 
	C153.462265,84.742683 153.898941,83.441856 154.703064,82.095581 
z"/>
<path fill="#E7F4FB" opacity="1.000000" stroke="none" 
	d="
M203.264191,90.970978 
	C202.642868,90.536003 202.336700,90.063110 202.024780,89.293663 
	C202.771469,88.983955 203.523926,88.970810 204.642349,89.047897 
	C204.531998,89.736458 204.055664,90.334770 203.264191,90.970978 
z"/>
<path fill="#11388E" opacity="1.000000" stroke="none" 
	d="
M198.402588,127.075668 
	C198.851044,126.424004 199.629089,125.724297 200.781433,125.034950 
	C200.347870,125.706085 199.540009,126.366859 198.402588,127.075668 
z"/>
<path fill="#F9F1DC" opacity="1.000000" stroke="none" 
	d="
M217.410645,93.954010 
	C217.795639,93.719421 218.178497,93.721420 218.559204,93.751160 
	C218.569946,93.751999 218.557571,94.048843 218.556000,94.207672 
	C218.173401,94.203278 217.790802,94.198883 217.410645,93.954010 
z"/>
<path fill="#F9F1DC" opacity="1.000000" stroke="none" 
	d="
M321.386169,96.769913 
	C321.095764,95.928314 321.036621,94.861092 321.055573,93.399155 
	C321.294952,94.184395 321.456207,95.364342 321.386169,96.769913 
z"/>
<path fill="#FFF5CC" opacity="1.000000" stroke="none" 
	d="
M321.367889,86.765106 
	C321.075867,85.926842 321.015930,84.865341 321.036072,83.411942 
	C321.277435,84.193977 321.438721,85.367928 321.367889,86.765106 
z"/>
<path fill="#D4E6FA" opacity="1.000000" stroke="none" 
	d="
M113.309311,128.047729 
	C113.274666,127.539268 113.547241,127.037994 114.159378,126.275909 
	C114.498940,126.015106 114.924217,126.009865 114.924217,126.009865 
	C114.922279,126.459175 114.920341,126.908493 114.881104,127.693504 
	C114.434708,128.037781 114.025612,128.046341 113.309311,128.047729 
z"/>
<path fill="#F9F1DC" opacity="1.000000" stroke="none" 
	d="
M211.751801,98.073486 
	C211.339569,98.082474 210.875290,97.804535 210.321838,97.267532 
	C210.721680,97.267838 211.210709,97.527206 211.751801,98.073486 
z"/>
<path fill="#11388E" opacity="1.000000" stroke="none" 
	d="
M203.210571,124.237656 
	C203.295563,123.936562 203.598740,123.601936 204.142059,123.324631 
	C204.064377,123.656013 203.746552,123.930061 203.210571,124.237656 
z"/>
<path fill="#F8F9F2" opacity="1.000000" stroke="none" 
	d="
M65.061707,124.497292 
	C65.037766,124.435135 65.413841,124.624901 65.317093,124.703484 
	C65.220352,124.782066 65.085648,124.559448 65.061707,124.497292 
z"/>
<path fill="#F8F9F2" opacity="1.000000" stroke="none" 
	d="
M76.549248,128.467590 
	C76.581779,128.522369 76.516716,128.412796 76.549248,128.467590 
z"/>
<path fill="#E5F1FA" opacity="1.000000" stroke="none" 
	d="
M169.464294,110.831390 
	C169.317078,110.657089 169.367416,110.317879 169.639282,109.831116 
	C169.794479,110.011200 169.728180,110.338844 169.464294,110.831390 
z"/>
<path fill="#F9F1DC" opacity="1.000000" stroke="none" 
	d="
M209.857910,96.648895 
	C209.598404,96.925674 209.337448,96.814766 209.130646,96.271301 
	C209.371582,96.105637 209.595459,96.246452 209.857910,96.648895 
z"/>
<path fill="#F9F1DC" opacity="1.000000" stroke="none" 
	d="
M208.853561,95.703873 
	C208.613708,95.925034 208.334961,95.809082 208.062683,95.324188 
	C208.317123,95.128471 208.565643,95.265640 208.853561,95.703873 
z"/>
<path fill="#0331AB" opacity="1.000000" stroke="none" 
	d="
M164.667496,111.952637 
	C164.314545,115.497574 163.977234,119.122345 162.738708,122.407333 
	C162.216263,123.793015 159.794037,124.462433 158.329071,125.397614 
	C158.329071,118.904572 158.329071,113.334999 158.165054,107.383759 
	C160.106979,108.633095 162.212921,110.264107 164.667496,111.952637 
z"/>
<path fill="#E5F1FA" opacity="1.000000" stroke="none" 
	d="
M115.097336,125.672203 
	C114.924217,126.009865 114.498940,126.015106 114.287140,126.017593 
	C113.727898,125.308662 112.922874,124.442490 113.103111,123.909515 
	C115.115669,117.958191 117.280281,112.058289 119.770218,106.116379 
	C118.514496,112.503670 116.892471,118.919106 115.097336,125.672203 
z"/>
<path fill="#19377D" opacity="1.000000" stroke="none" 
	d="
M131.300079,72.443909 
	C136.451096,72.186485 141.926880,72.186485 148.056549,72.186485 
	C148.056549,79.148689 148.056549,86.069221 148.007004,93.445007 
	C147.639343,90.527359 147.071915,87.156120 147.049179,83.781212 
	C146.976761,73.026726 147.054947,73.039391 136.550613,73.000191 
	C134.908340,72.994064 133.266769,72.805519 131.300079,72.443909 
z"/>
<path fill="#E5F1FA" opacity="1.000000" stroke="none" 
	d="
M121.402451,102.075638 
	C120.959106,97.688339 120.351379,92.914940 124.489761,89.063416 
	C123.777298,93.254929 122.716812,97.519547 121.402451,102.075638 
z"/>
<path fill="#19377D" opacity="1.000000" stroke="none" 
	d="
M161.262085,72.905457 
	C160.781448,72.852615 160.853165,72.417557 160.927597,72.210037 
	C166.074203,72.003029 171.148544,72.090302 176.217606,71.964951 
	C178.517334,71.908081 179.717041,72.390526 178.479294,74.937744 
	C177.765961,74.305084 177.375259,73.668076 176.984558,73.031067 
	C171.903946,73.006813 166.823334,72.982559 161.262085,72.905457 
z"/>
<path fill="#133A94" opacity="1.000000" stroke="none" 
	d="
M176.987946,73.449669 
	C177.375259,73.668076 177.765961,74.305084 178.253906,75.319458 
	C177.934891,77.557716 177.518631,79.418610 177.034286,81.872688 
	C176.966202,82.465866 176.981522,82.962639 176.981522,82.962639 
	C176.981522,82.962639 176.604156,83.131851 176.407898,83.196091 
	C176.471527,80.129646 176.731430,76.998962 176.987946,73.449669 
z"/>
<path fill="#19377D" opacity="1.000000" stroke="none" 
	d="
M156.167236,81.829514 
	C156.699951,80.098915 157.591476,78.266624 158.751892,76.229057 
	C158.189194,77.925125 157.357620,79.826469 156.167236,81.829514 
z"/>
<path fill="#133A94" opacity="1.000000" stroke="none" 
	d="
M153.774231,104.184586 
	C153.889343,104.616737 153.742401,105.218307 153.315659,105.967926 
	C153.194641,105.528648 153.353409,104.941322 153.774231,104.184586 
z"/>
<path fill="#E5F1FA" opacity="1.000000" stroke="none" 
	d="
M120.342628,105.935616 
	C120.198486,105.553772 120.281693,104.980431 120.591919,104.213455 
	C120.735954,104.594589 120.652962,105.169350 120.342628,105.935616 
z"/>
<path fill="#19377D" opacity="1.000000" stroke="none" 
	d="
M159.269348,75.826355 
	C159.129883,75.620056 159.235962,75.224174 159.597076,74.645851 
	C159.739700,74.854530 159.627274,75.245651 159.269348,75.826355 
z"/>
<path fill="#19377D" opacity="1.000000" stroke="none" 
	d="
M160.277893,73.899391 
	C160.157898,73.700508 160.260666,73.356369 160.616486,72.898254 
	C160.746567,73.107567 160.623611,73.430847 160.277893,73.899391 
z"/>
<path fill="#FFFFFF" opacity="1.000000" stroke="none" 
	d="
M177.008957,83.417557 
	C176.981522,82.962639 176.966202,82.465866 177.062485,82.236687 
	C180.691330,81.826065 180.001724,84.352417 179.931290,86.408966 
	C179.872086,88.137848 179.677444,89.862099 179.845428,91.827492 
	C180.116989,92.501984 180.085876,92.937378 179.932404,93.678329 
	C179.406296,93.991844 179.002533,93.999817 178.296371,94.028137 
	C177.674774,90.656479 177.355591,87.264481 177.008957,83.417557 
z"/>
<path fill="#E7F4FB" opacity="1.000000" stroke="none" 
	d="
M201.899155,88.601044 
	C200.819519,89.128517 199.646774,89.271912 197.471115,89.537933 
	C198.987595,90.930550 199.819580,91.694588 200.848267,92.733353 
	C199.202637,92.882996 197.360321,92.757919 195.464050,92.028969 
	C195.599396,90.612030 195.788712,89.798965 195.978027,88.985901 
	C196.102905,88.582893 196.227783,88.179878 196.368286,87.454941 
	C198.586197,85.518944 200.751251,84.091011 201.899155,88.601044 
z"/>
<path fill="#11388E" opacity="1.000000" stroke="none" 
	d="
M195.670700,89.026077 
	C195.788712,89.798965 195.599396,90.612030 195.238831,91.697540 
	C195.166168,91.002075 195.264771,90.034172 195.670700,89.026077 
z"/>
<path fill="#11388E" opacity="1.000000" stroke="none" 
	d="
M211.538574,83.389191 
	C211.654144,82.941429 211.937576,82.670090 212.221008,82.398743 
	C212.333176,82.516449 212.549454,82.730415 212.542480,82.737976 
	C212.276550,83.025650 211.990128,83.294350 211.538574,83.389191 
z"/>
<path fill="#FFF3CA" opacity="1.000000" stroke="none" 
	d="
M236.725616,78.214569 
	C236.950012,78.279564 236.637451,78.581184 236.637451,78.581184 
	C236.637451,78.581184 236.230545,78.521362 236.141754,78.401337 
	C236.052948,78.281311 236.501221,78.149567 236.725616,78.214569 
z"/>
<path fill="#0534A0" opacity="1.000000" stroke="none" 
	d="
M92.923912,74.220345 
	C101.084183,73.813301 109.122849,73.413956 117.137878,73.693047 
	C117.861916,73.718262 118.433632,78.117500 119.143509,81.298309 
	C119.116867,83.070229 119.022789,84.029297 118.928711,84.988358 
	C118.928719,84.988358 118.710846,85.214363 118.340965,85.569336 
	C113.720383,86.124046 109.469681,86.323792 105.022522,86.532761 
	C104.448517,88.747948 103.927666,90.758018 103.269234,93.299034 
	C107.831879,93.299034 111.758186,93.299034 115.739922,93.299034 
	C113.810005,105.837341 113.395622,107.605537 102.270401,107.000443 
	C101.279533,106.946564 100.278442,107.080940 98.876190,107.147751 
	C98.176598,109.714272 96.891098,113.981094 97.772675,114.489403 
	C100.569466,116.101974 104.174965,116.311935 108.031631,117.192924 
	C107.197937,120.141663 106.091866,124.053787 104.985794,127.965927 
	C104.545952,128.017014 104.106117,128.068100 103.280258,127.701965 
	C100.913742,124.840118 99.421349,125.955963 98.049210,127.948959 
	C97.866608,127.993622 97.684006,128.038269 97.038597,127.674271 
	C93.078346,126.844643 89.569801,126.497124 86.088326,125.970581 
	C84.436340,125.720741 81.597427,125.365974 81.459663,124.645233 
	C81.131760,122.929695 81.936752,120.912399 82.577667,119.122101 
	C83.158844,117.498703 84.487442,116.093018 84.847305,114.451241 
	C85.482704,111.552299 85.697968,108.552711 85.963013,105.584000 
	C86.157249,103.408478 86.149788,101.214943 86.232224,99.029442 
	C86.325104,98.470512 86.417992,97.911575 87.102203,97.105278 
	C89.456024,90.234077 91.218513,83.610237 92.940002,76.563660 
	C92.847672,75.862457 92.796326,75.584000 92.744987,75.305542 
	C92.616020,74.999214 92.632996,74.701210 92.923912,74.220345 
z"/>
<path fill="#EF8A1C" opacity="1.000000" stroke="none" 
	d="
M30.362953,82.393723 
	C46.660305,82.111275 62.990326,82.114983 79.320297,82.143822 
	C79.784264,82.144638 80.247749,82.413177 81.177658,82.701347 
	C80.898331,84.293846 80.619751,85.882072 80.177734,87.855621 
	C79.570427,88.268745 79.126564,88.296539 78.359650,88.409958 
	C65.261391,88.381332 52.483730,88.368095 39.713211,88.059303 
	C37.426521,88.003998 35.169373,86.726906 32.550484,85.839218 
	C31.600122,84.670799 30.997868,83.677101 30.362953,82.393723 
z"/>
<path fill="#ED8A1E" opacity="1.000000" stroke="none" 
	d="
M77.859482,97.419586 
	C67.205971,97.864014 56.579861,98.256264 45.988613,97.813873 
	C43.753857,97.720528 41.646847,94.568871 39.406696,92.512573 
	C51.901928,92.167641 64.471436,92.136505 77.502838,92.049400 
	C77.942917,93.685654 77.921104,95.377876 77.859482,97.419586 
z"/>
<path fill="#ED8B20" opacity="1.000000" stroke="none" 
	d="
M52.462990,108.026459 
	C50.996891,106.994179 49.999191,105.947754 48.797279,104.666687 
	C49.196175,103.656456 49.787281,102.216782 50.404198,102.205627 
	C58.692413,102.055862 66.984222,102.105293 76.049698,102.105293 
	C75.611641,104.106033 75.282394,105.609772 74.903229,107.499649 
	C73.833923,108.021736 72.814545,108.157692 71.421738,108.390869 
	C65.009338,108.329498 58.970364,108.170914 52.462990,108.026459 
z"/>
<path fill="#11388E" opacity="1.000000" stroke="none" 
	d="
M86.078384,99.381973 
	C86.149788,101.214943 86.157249,103.408478 85.963013,105.584000 
	C85.697968,108.552711 85.482704,111.552299 84.847305,114.451241 
	C84.487442,116.093018 83.158844,117.498703 82.577667,119.122101 
	C81.936752,120.912399 81.131760,122.929695 81.459663,124.645233 
	C81.597427,125.365974 84.436340,125.720741 86.088326,125.970581 
	C89.569801,126.497124 93.078346,126.844643 96.764359,127.608696 
	C91.091591,127.951775 85.230255,127.951775 78.728012,127.951775 
	C79.130913,126.087479 79.486877,124.440369 79.832504,122.379944 
	C81.856300,114.555916 83.890427,107.145210 86.078384,99.381973 
z"/>
<path fill="#11388E" opacity="1.000000" stroke="none" 
	d="
M92.980995,76.986404 
	C91.218513,83.610237 89.456024,90.234077 87.320786,96.915405 
	C88.584648,90.543091 90.221260,84.113289 92.211136,77.335716 
	C92.564400,76.987946 92.980995,76.986404 92.980995,76.986404 
z"/>
<path fill="#FFFFFF" opacity="1.000000" stroke="none" 
	d="
M78.357857,106.998222 
	C77.984703,106.254295 77.982872,105.499680 77.983032,104.367622 
	C78.908043,104.372612 79.831062,104.755051 80.754089,105.137482 
	C80.079117,105.754166 79.404152,106.370850 78.357857,106.998222 
z"/>
<path fill="#19377D" opacity="1.000000" stroke="none" 
	d="
M92.940002,76.563660 
	C92.980995,76.986404 92.564400,76.987946 92.356270,76.980347 
	C92.190834,76.559608 92.233528,76.146477 92.510605,75.519440 
	C92.796326,75.584000 92.847672,75.862457 92.940002,76.563660 
z"/>
<path fill="#E5F1FA" opacity="1.000000" stroke="none" 
	d="
M99.282097,107.127876 
	C100.278442,107.080940 101.279533,106.946564 102.270401,107.000443 
	C113.395622,107.605537 113.810005,105.837341 115.739922,93.299034 
	C111.758186,93.299034 107.831879,93.299034 103.269234,93.299034 
	C103.927666,90.758018 104.448517,88.747948 105.022522,86.532761 
	C109.469681,86.323792 113.720383,86.124046 118.384399,85.720169 
	C119.497063,88.690399 115.654099,91.684502 118.934509,95.416107 
	C119.770905,96.367554 116.155968,100.879135 115.100861,103.932793 
	C113.676254,108.055862 110.638252,108.103737 107.152229,108.069611 
	C104.731522,108.045906 102.304947,108.619843 99.499634,108.657059 
	C99.172874,107.967514 99.227486,107.547699 99.282097,107.127876 
z"/>
<path fill="#11388E" opacity="1.000000" stroke="none" 
	d="
M98.876190,107.147751 
	C99.227486,107.547699 99.172874,107.967514 99.160988,108.702171 
	C99.076416,109.439049 98.949120,109.861092 98.546906,110.904106 
	C99.011681,112.339912 99.680725,113.767761 100.503410,113.862587 
	C103.922729,114.256706 107.388374,114.248886 110.837021,114.388565 
	C110.552063,115.382545 110.267105,116.376518 109.985703,117.682915 
	C108.579048,121.365189 107.168839,124.735046 105.372208,128.035416 
	C106.091866,124.053787 107.197937,120.141663 108.031631,117.192924 
	C104.174965,116.311935 100.569466,116.101974 97.772675,114.489403 
	C96.891098,113.981094 98.176598,109.714272 98.876190,107.147751 
z"/>
<path fill="#E5F1FA" opacity="1.000000" stroke="none" 
	d="
M110.701019,114.033401 
	C107.388374,114.248886 103.922729,114.256706 100.503410,113.862587 
	C99.680725,113.767761 99.011681,112.339912 98.538849,111.235924 
	C102.725471,111.857254 106.645241,112.767746 110.701019,114.033401 
z"/>
<path fill="#E5F1FA" opacity="1.000000" stroke="none" 
	d="
M119.322311,84.911346 
	C119.022789,84.029297 119.116867,83.070229 119.207916,81.747581 
	C119.594139,80.315636 119.983376,79.247269 120.626175,77.935104 
	C120.491791,80.072311 120.103851,82.453323 119.322311,84.911346 
z"/>
<path fill="#FE8303" opacity="1.000000" stroke="none" 
	d="
M63.998676,73.972504 
	C70.108017,73.972466 75.717804,73.972466 81.327591,73.972466 
	C81.379509,74.481407 81.431419,74.990341 81.483337,75.499283 
	C79.930305,75.674957 78.377747,75.998077 76.824165,76.003075 
	C64.017960,76.044228 51.211182,75.974228 38.405514,76.067360 
	C35.616600,76.087646 32.830387,76.828392 30.045198,76.813477 
	C29.135141,76.808609 28.232277,75.459824 27.326122,74.725662 
	C28.259439,74.328186 29.194765,73.581161 30.125769,73.586510 
	C41.250591,73.650421 52.374771,73.826103 63.998676,73.972504 
z"/>
<path fill="#ED8B20" opacity="1.000000" stroke="none" 
	d="
M66.969734,111.877220 
	C68.775658,112.023148 70.581581,112.169083 73.895393,112.436859 
	C72.463142,114.702019 71.774971,117.279480 70.342705,117.796799 
	C64.264854,119.992043 59.052052,117.753990 56.634914,112.089348 
	C59.299713,112.089348 61.734249,112.089348 64.919006,112.041351 
	C66.102722,111.954651 66.536232,111.915932 66.969734,111.877220 
z"/>
<path fill="#F8F9F2" opacity="1.000000" stroke="none" 
	d="
M66.975616,111.542923 
	C66.536232,111.915932 66.102722,111.954651 65.345161,111.944611 
	C65.313354,111.092941 65.605606,110.290024 65.897850,109.487099 
	C66.259071,110.060944 66.620285,110.634789 66.975616,111.542923 
z"/>
<path fill="#11388E" opacity="1.000000" stroke="none" 
	d="
M98.455185,128.037704 
	C99.421349,125.955963 100.913742,124.840118 102.954880,127.625122 
	C101.630730,128.019150 100.245941,128.072800 98.455185,128.037704 
z"/>
</svg>