<svg version="1.1" id="Layer_1" xmlns="http://www.w3.org/2000/svg" xmlns:xlink="http://www.w3.org/1999/xlink" x="0px" y="0px"
	 width="100%" viewBox="0 0 299 56" enable-background="new 0 0 299 56" xml:space="preserve">
<path fill="#FEFEFE" opacity="1.000000" stroke="none" 
	d="
M300.000000,29.000000 
	C300.000000,38.303650 300.000000,47.607296 300.000000,57.000000 
	C263.645813,57.000000 227.291565,57.000000 190.474701,56.615971 
	C189.665802,52.134201 189.319534,48.036461 189.014816,43.703739 
	C189.056381,43.468758 189.162796,43.003517 189.533051,42.995537 
	C197.572754,42.029110 198.011307,37.439159 195.104172,32.000153 
	C198.801086,32.000153 201.900543,32.000153 205.053802,32.138813 
	C205.193283,32.326862 205.278961,32.376255 205.364624,32.425644 
	C205.243088,32.283710 205.121536,32.141781 204.893036,31.740990 
	C204.523422,30.988735 204.260788,30.495342 204.413116,29.945021 
	C206.940659,29.594408 209.052582,29.050566 211.165863,29.045288 
	C235.388321,28.984787 259.610992,29.006506 283.833588,29.005507 
	C289.222382,29.005285 294.611206,29.001919 300.000000,29.000000 
z"/>
<path fill="#0433A0" opacity="1.000000" stroke="none" 
	d="
M103.000000,57.000000 
	C100.958336,57.000000 98.916664,57.000000 96.447136,56.598122 
	C96.969810,50.316532 97.920349,44.436829 98.832474,38.398682 
	C98.794060,38.240238 99.024384,38.009441 99.375496,37.944042 
	C102.140007,33.964165 105.792397,30.485889 104.066254,25.128771 
	C103.891273,24.585739 104.276917,23.848356 104.442329,23.211538 
	C105.680496,18.444952 106.969429,13.691122 108.159439,8.912621 
	C108.952370,5.728578 110.170631,3.513796 114.180153,3.917235 
	C118.060181,4.307646 122.007248,4.031751 125.940384,4.468792 
	C125.954453,10.264512 125.953011,15.639957 125.702026,21.226677 
	C126.028770,22.234928 126.605064,23.031904 127.107819,23.834837 
	C127.034286,23.840794 127.164673,23.771702 127.151466,24.113010 
	C127.935234,24.541758 129.374619,24.851936 129.433075,24.683317 
	C130.349228,22.040983 131.087296,19.336901 131.958618,16.443233 
	C132.298126,16.053772 132.576263,15.956286 133.269714,15.955360 
	C134.773987,14.580970 136.228348,13.351777 136.947632,11.785105 
	C138.726593,7.910297 140.283554,3.899492 145.272171,3.397312 
	C147.056015,3.217741 148.900848,3.726050 150.722961,3.813230 
	C151.783051,3.863950 153.409302,3.252767 153.798004,3.733722 
	C154.507812,4.611957 154.858200,6.132272 154.695129,7.291436 
	C154.352600,9.726173 153.670258,12.127107 152.968460,14.494805 
	C150.346359,23.341240 147.660126,32.168667 144.649261,40.945896 
	C141.870758,39.261242 139.440948,37.633911 137.013397,35.613113 
	C137.778137,32.060574 138.540588,28.901495 139.303055,25.742416 
	C134.886154,26.519590 132.589783,28.148535 133.889221,32.413548 
	C129.834946,40.824280 125.917473,48.912140 122.000000,57.000000 
	C120.285576,57.000000 118.571159,57.000000 116.137383,56.610531 
	C115.657425,51.142811 115.896820,46.064560 116.519424,40.887501 
	C119.111359,35.442776 118.418373,29.202301 115.097092,26.478724 
	C114.505447,27.465658 113.770287,28.363125 113.381805,29.391544 
	C109.962654,38.443020 110.496681,49.001526 103.022743,56.513004 
	C102.937813,56.598366 103.004234,56.834335 103.000000,57.000000 
z"/>
<path fill="#06349F" opacity="1.000000" stroke="none" 
	d="
M92.000000,1.000000 
	C93.389320,1.000000 94.778648,1.000000 96.585213,1.413027 
	C97.419449,4.631412 97.836433,7.436770 98.272095,10.184977 
	C98.290771,10.127825 98.335968,10.239259 98.133591,10.221415 
	C97.815964,10.268385 97.700729,10.333200 97.585487,10.398015 
	C97.739716,10.586540 97.893936,10.775064 97.946381,11.345327 
	C96.280121,16.056658 92.537842,15.610435 89.251770,15.214984 
	C83.990341,14.581815 82.569717,17.171343 82.694580,22.383774 
	C86.837410,22.383774 90.850281,22.383774 95.452057,22.383774 
	C94.108528,26.780138 93.005257,30.390348 91.509857,34.048317 
	C88.699760,34.331028 86.270668,34.487579 83.867683,34.828217 
	C82.238037,35.059231 80.645035,35.548740 78.861267,36.033043 
	C78.686897,36.143440 78.274269,36.153931 77.873146,36.162319 
	C75.310112,38.955784 74.610008,41.621391 78.550484,43.951691 
	C81.657288,44.028805 84.320923,44.098190 86.964340,44.443886 
	C87.246040,45.484524 87.547943,46.248852 87.976791,47.333862 
	C88.031235,48.100842 87.958748,48.547146 87.516579,49.046967 
	C86.034203,50.917953 84.921509,52.735424 83.543060,54.986965 
	C76.033813,54.986965 68.019653,54.986965 60.010571,54.586845 
	C61.667522,47.867939 64.596848,41.818611 64.329346,34.800018 
	C67.052597,25.690594 71.825699,17.358810 70.834496,7.501442 
	C70.815178,7.312064 71.028252,6.996551 71.334976,6.843535 
	C73.972359,4.467508 76.035835,1.980007 80.026550,3.506273 
	C80.903282,3.841584 82.652542,1.895492 84.000000,1.000000 
	C84.750000,1.000000 85.500000,1.000000 86.695129,1.358817 
	C89.047806,3.426271 90.803360,4.105598 92.000000,1.000000 
z"/>
<path fill="#FEFEFD" opacity="1.000000" stroke="none" 
	d="
M45.000000,57.000000 
	C30.401930,57.000000 15.803859,57.000000 1.000000,57.000000 
	C1.000000,40.646347 1.000000,24.291830 1.303077,7.618081 
	C3.729991,8.533289 5.853828,9.767731 7.987083,11.384958 
	C7.757368,14.492506 8.923714,16.045126 11.796520,16.520554 
	C11.919456,17.195616 11.968788,17.586102 12.019392,18.345985 
	C13.636133,19.821728 15.251604,20.928072 17.138187,22.045883 
	C17.588140,22.030102 17.766981,22.002853 18.101164,22.212633 
	C18.509583,22.952759 18.762655,23.455858 19.068348,24.211512 
	C19.393604,24.654900 19.666243,24.845736 19.971672,25.024239 
	C20.004465,25.011908 19.950455,25.057270 19.929550,25.395817 
	C20.263176,26.518940 20.617704,27.303516 20.985086,28.466358 
	C23.455046,33.158333 25.073267,38.204178 30.596127,39.842270 
	C31.538105,46.002438 36.285732,50.560715 42.453262,51.428890 
	C43.373611,53.489391 44.186806,55.244698 45.000000,57.000000 
M28.586704,40.516716 
	C28.586704,40.516716 28.477306,40.581692 28.586704,40.516716 
z"/>
<path fill="#EAF4FA" opacity="1.000000" stroke="none" 
	d="
M78.274269,36.153931 
	C78.274269,36.153931 78.686897,36.143440 79.318054,36.086582 
	C83.164726,36.025139 86.389725,36.153053 89.589165,35.923985 
	C90.401840,35.865795 91.133240,34.672363 91.901985,34.000557 
	C93.005257,30.390348 94.108528,26.780138 95.452057,22.383774 
	C90.850281,22.383774 86.837410,22.383774 82.694580,22.383774 
	C82.569717,17.171343 83.990341,14.581815 89.251770,15.214984 
	C92.537842,15.610435 96.280121,16.056658 98.088791,11.192497 
	C98.332993,10.657928 98.335968,10.239259 98.335968,10.239259 
	C98.335968,10.239259 98.290771,10.127825 98.537987,9.925207 
	C99.523468,6.815060 100.261734,3.907529 101.000000,0.999999 
	C103.041664,1.000000 105.083336,1.000000 107.645020,1.403332 
	C107.975632,2.771595 107.833366,3.748605 107.589630,4.699613 
	C104.743370,15.805151 101.881859,26.906778 99.024384,38.009441 
	C99.024384,38.009441 98.794060,38.240238 98.556839,38.690331 
	C96.879738,45.093616 95.439873,51.046810 94.000000,57.000000 
	C91.629440,57.000000 89.258888,57.000000 86.516998,56.610115 
	C86.725876,53.811306 87.306068,51.402378 87.886261,48.993450 
	C87.958748,48.547146 88.031235,48.100842 88.046043,46.970467 
	C87.653755,45.580124 87.319153,44.873848 86.984550,44.167572 
	C84.320923,44.098190 81.657288,44.028805 78.389481,43.618935 
	C77.948296,40.903606 78.111282,38.528770 78.274269,36.153931 
z"/>
<path fill="#EB8920" opacity="1.000000" stroke="none" 
	d="
M300.000000,21.000000 
	C300.000000,22.714375 300.000000,24.428751 299.533325,26.619301 
	C266.825012,27.095478 234.583359,27.095478 201.080109,27.095478 
	C202.316315,24.443596 203.150406,22.654333 204.450592,20.925385 
	C236.611145,20.990467 268.305573,20.995234 300.000000,21.000000 
z"/>
<path fill="#E8F1F8" opacity="1.000000" stroke="none" 
	d="
M159.000000,57.000000 
	C154.310745,57.000000 149.621490,57.000000 144.433746,56.600685 
	C145.826309,49.005714 147.767014,41.822655 149.596985,34.611492 
	C152.437622,23.417715 155.202820,12.204799 158.000000,0.999999 
	C162.689255,1.000000 167.378510,1.000000 172.294983,1.231576 
	C169.600159,3.551994 166.678116,5.640836 163.771271,7.736051 
	C163.786484,7.742423 163.783798,7.771552 163.479645,7.988470 
	C161.725296,13.410542 160.544418,18.711145 158.743683,23.792067 
	C157.170441,28.231031 157.626541,31.553995 162.409363,33.938332 
	C165.610641,34.138454 168.437546,34.060917 171.213181,34.401314 
	C172.525101,34.562195 174.841522,35.593914 174.808548,36.110130 
	C174.655823,38.502441 174.139069,41.001217 173.083786,43.130337 
	C172.749756,43.804279 169.304977,43.990032 169.041931,43.484463 
	C166.024994,37.685905 160.812057,41.725250 156.824249,40.591171 
	C156.084076,40.380676 154.755157,40.880955 154.229187,41.502628 
	C151.346008,44.910370 152.267685,50.836983 156.171204,54.096287 
	C157.229782,55.240238 158.114899,56.120121 159.000000,57.000000 
z"/>
<path fill="#E98922" opacity="1.000000" stroke="none" 
	d="
M300.000000,11.000000 
	C300.000000,12.714375 300.000000,14.428750 299.531616,16.590015 
	C269.213440,17.044233 239.363617,17.039309 209.513870,17.089594 
	C207.738327,17.092585 205.963547,17.538364 204.071075,17.512413 
	C203.933487,16.162348 203.913208,15.077967 203.975418,13.763798 
	C204.057922,13.534011 204.167191,13.058099 204.453888,12.913580 
	C205.500351,12.125363 206.260117,11.481664 207.481659,10.915073 
	C238.628952,10.994787 269.314484,10.997394 300.000000,11.000000 
z"/>
<path fill="#FCFBEE" opacity="1.000000" stroke="none" 
	d="
M42.346111,51.123692 
	C36.285732,50.560715 31.538105,46.002438 30.596127,39.842270 
	C25.073267,38.204178 23.455046,33.158333 21.345276,28.469429 
	C23.492596,29.074564 25.292578,30.054895 27.002708,31.356674 
	C26.948862,32.120289 26.984867,32.562454 26.841902,33.114113 
	C27.032862,33.500038 27.402790,33.776474 27.867477,34.246498 
	C27.962234,34.440086 28.097212,34.849483 28.147682,35.090801 
	C28.360270,35.631821 28.594389,35.856514 29.003014,36.273663 
	C30.369154,36.803684 31.632792,37.066246 33.013428,37.481777 
	C33.457859,37.548023 33.785286,37.461296 34.571846,37.342243 
	C36.861847,37.301323 38.701092,37.402050 40.521946,37.262596 
	C45.069500,36.914318 49.608696,36.456966 54.370987,35.901466 
	C54.648190,35.429470 54.705647,35.099400 54.830154,34.479202 
	C54.966557,33.798412 55.035904,33.407745 55.324070,32.851013 
	C55.633976,32.164310 55.725063,31.643671 55.856693,30.735241 
	C55.943806,29.313644 55.990376,28.279842 56.284966,26.993107 
	C56.940693,24.925329 57.348400,23.110483 57.821594,20.908871 
	C57.949211,19.479519 58.011337,18.436935 58.330593,17.268913 
	C58.775688,17.111143 58.963654,17.078814 59.498062,16.976357 
	C60.248676,13.962284 60.652851,11.018338 61.093231,7.893042 
	C61.129433,7.711691 61.155304,7.342737 61.438835,7.113828 
	C62.481579,4.923279 63.240791,2.961640 64.000000,1.000000 
	C65.388893,1.000000 66.777779,1.000000 68.590103,1.424810 
	C68.718239,6.324609 68.422951,10.799598 68.142639,15.468171 
	C68.157608,15.661757 67.948860,15.989203 67.597931,16.034660 
	C65.965218,17.530096 63.400208,19.233843 63.627918,20.385303 
	C64.524658,24.919834 61.832882,28.387362 60.942802,32.335175 
	C59.983582,36.589645 58.550026,40.737167 57.094841,45.712902 
	C57.031036,45.671616 58.089321,46.356430 59.104923,47.427361 
	C58.374828,50.875648 57.687412,53.937824 57.000000,57.000000 
	C54.629444,57.000000 52.258884,57.000000 49.512657,56.608421 
	C49.379318,54.676617 49.621643,53.136387 49.938305,51.123692 
	C47.122261,51.123692 44.734188,51.123692 42.346111,51.123692 
M36.106800,44.502419 
	C37.398609,45.418114 38.690418,46.333809 40.860752,47.263256 
	C43.194267,47.284351 45.527779,47.305450 48.126244,47.623604 
	C48.463470,47.515820 48.800697,47.408039 49.637154,47.229534 
	C49.802139,47.197445 49.967121,47.165359 50.760609,47.116894 
	C51.085434,46.665112 51.410255,46.213329 51.889198,44.927982 
	C52.452965,42.034824 51.555126,40.726955 48.329784,40.953316 
	C44.263988,41.238655 40.166943,41.078781 35.476288,41.011711 
	C35.592842,41.716324 35.709396,42.420937 36.019821,43.472252 
	C36.019821,43.472252 36.207043,43.822590 36.106800,44.502419 
z"/>
<path fill="#FFF2C2" opacity="1.000000" stroke="none" 
	d="
M204.188400,17.778099 
	C205.963547,17.538364 207.738327,17.092585 209.513870,17.089594 
	C239.363617,17.039309 269.213440,17.044233 299.531616,17.018452 
	C300.000000,18.066669 300.000000,19.133339 300.000000,20.600004 
	C268.305573,20.995234 236.611145,20.990467 204.452087,20.538113 
	C204.054443,19.319715 204.121429,18.548908 204.188400,17.778099 
z"/>
<path fill="#E78A24" opacity="1.000000" stroke="none" 
	d="
M208.000000,1.000000 
	C238.666672,1.000000 269.333344,1.000000 300.000000,1.000000 
	C300.000000,2.684782 300.000000,4.342919 299.531311,6.503621 
	C268.706207,7.078831 238.349747,7.151477 207.715729,6.980937 
	C207.625443,4.825165 207.812714,2.912582 208.000000,1.000000 
M257.500000,5.012306 
	C271.106628,5.012306 284.713287,5.012306 298.319916,5.012306 
	C298.308441,4.547611 298.296967,4.082915 298.285461,3.618220 
	C269.052460,3.618220 239.819473,3.618220 210.586472,3.618220 
	C210.582947,4.082926 210.579437,4.547631 210.575912,5.012337 
	C225.883942,5.012337 241.191971,5.012337 257.500000,5.012306 
z"/>
<path fill="#FFF1C1" opacity="1.000000" stroke="none" 
	d="
M207.993286,7.224123 
	C238.349747,7.151477 268.706207,7.078831 299.531311,7.003092 
	C300.000000,8.066669 300.000000,9.133339 300.000000,10.600004 
	C269.314484,10.997394 238.628952,10.994787 207.615448,10.626455 
	C207.522736,9.248526 207.758011,8.236323 207.993286,7.224123 
z"/>
<path fill="#103791" opacity="1.000000" stroke="none" 
	d="
M157.532059,0.999999 
	C155.202820,12.204799 152.437622,23.417715 149.596985,34.611492 
	C147.767014,41.822655 145.826309,49.005714 143.967621,56.600685 
	C139.643097,57.000000 135.286194,57.000000 130.296326,56.610847 
	C131.009995,50.828049 132.519363,45.467674 133.631790,40.026161 
	C134.156128,37.461323 133.918427,34.740707 134.026031,32.090679 
	C132.589783,28.148535 134.886154,26.519590 139.303055,25.742416 
	C138.540588,28.901495 137.778137,32.060574 137.010025,35.944817 
	C137.004059,37.112446 137.003738,37.554913 136.749268,38.193047 
	C136.609894,41.595825 133.112015,44.988934 136.990234,48.415764 
	C137.546524,50.187210 138.102646,51.545185 138.658768,52.903160 
	C139.640732,52.452217 141.215820,52.236362 141.503601,51.510281 
	C142.861481,48.084465 143.866852,44.518932 144.997925,41.003220 
	C147.660126,32.168667 150.346359,23.341240 152.968460,14.494805 
	C153.670258,12.127107 154.352600,9.726173 154.695129,7.291436 
	C154.858200,6.132272 154.507812,4.611957 153.798004,3.733722 
	C153.409302,3.252767 151.783051,3.863950 150.722961,3.813230 
	C148.900848,3.726050 147.056015,3.217741 145.272171,3.397312 
	C140.283554,3.899492 138.726593,7.910297 136.947632,11.785105 
	C136.228348,13.351777 134.773987,14.580970 133.289673,15.578600 
	C135.283463,10.462306 137.641724,5.731153 140.000000,0.999999 
	C145.688034,1.000000 151.376083,1.000000 157.532059,0.999999 
z"/>
<path fill="#F8FDF8" opacity="1.000000" stroke="none" 
	d="
M204.167191,13.058099 
	C204.167191,13.058099 204.057922,13.534011 203.641357,13.826309 
	C202.818161,15.077443 202.411530,16.036278 201.649475,17.002609 
	C200.871872,18.016399 200.449677,19.022690 200.014771,20.434673 
	C198.083130,28.603140 198.494705,29.546721 203.998169,30.001947 
	C204.260788,30.495342 204.523422,30.988735 204.893036,31.741062 
	C205.000000,32.000000 205.000000,32.000153 205.000000,32.000153 
	C201.900543,32.000153 198.801086,32.000153 195.104172,32.000153 
	C198.011307,37.439159 197.572754,42.029110 189.445953,42.608452 
	C190.049286,38.469639 191.109985,34.709923 192.362473,30.807678 
	C192.450867,30.130064 192.347458,29.594976 192.099152,28.827332 
	C191.919144,28.415499 191.884048,28.236223 192.249329,28.039238 
	C193.695145,27.382452 194.740631,26.743380 195.786102,26.104307 
	C194.191345,25.402252 192.596588,24.700193 191.000443,23.597715 
	C191.001205,22.128843 191.003357,21.060394 191.311890,19.955231 
	C192.080566,19.330502 192.542877,18.742485 193.257599,18.090366 
	C193.679214,18.065144 193.848434,18.104027 194.136612,18.286598 
	C194.478378,18.234983 194.701172,18.039682 194.966370,17.482880 
	C195.667877,15.060466 196.326996,12.999554 197.229797,10.787838 
	C197.408112,9.790338 197.342743,8.943641 197.147491,7.866738 
	C196.983170,7.463705 196.948776,7.290877 196.933533,6.794938 
	C196.212463,6.042733 195.472229,5.613640 194.479782,5.120173 
	C193.910019,4.927234 193.592484,4.798672 193.240753,4.723547 
	C193.206543,4.776985 193.331543,4.755177 193.234039,4.495674 
	C192.819565,4.063455 192.502594,3.890738 192.164383,3.720151 
	C192.143158,3.722282 192.196564,3.704799 192.156647,3.484670 
	C192.116745,3.264540 191.960434,2.845303 191.973969,2.538185 
	C191.991669,1.820712 191.995834,1.410356 192.000000,1.000000 
	C195.361282,1.000000 198.722580,1.000000 202.602417,1.354154 
	C203.746155,3.471842 204.371353,5.235374 204.667282,6.856557 
	C202.890259,7.146985 201.442490,7.579762 199.771179,8.159290 
	C199.697296,8.870357 199.846954,9.434673 200.342010,9.945951 
	C202.124542,9.261870 203.561661,8.630831 204.868042,8.305721 
	C204.547272,10.093801 204.357239,11.575951 204.167191,13.058099 
z"/>
<path fill="#FAF5E6" opacity="1.000000" stroke="none" 
	d="
M202.004883,16.995110 
	C202.411530,16.036278 202.818161,15.077443 203.558853,14.056097 
	C203.913208,15.077967 203.933487,16.162348 204.071075,17.512413 
	C204.121429,18.548908 204.054443,19.319715 203.985962,20.477798 
	C203.150406,22.654333 202.316315,24.443596 201.080109,27.095478 
	C234.583359,27.095478 266.825012,27.095478 299.533325,27.047739 
	C300.000000,27.444445 300.000000,27.888889 300.000000,28.666668 
	C294.611206,29.001919 289.222382,29.005285 283.833588,29.005507 
	C259.610992,29.006506 235.388321,28.984787 211.165863,29.045288 
	C209.052582,29.050566 206.940659,29.594408 204.413132,29.945019 
	C198.494705,29.546721 198.083130,28.603140 200.357101,20.373539 
	C201.143082,18.936178 201.573975,17.965645 202.004883,16.995110 
z"/>
<path fill="#E7F3FB" opacity="1.000000" stroke="none" 
	d="
M139.536819,0.999999 
	C137.641724,5.731153 135.283463,10.462306 132.905243,15.570221 
	C132.576263,15.956286 132.298126,16.053772 131.673737,16.641426 
	C129.919266,19.286177 128.541977,21.528940 127.164673,23.771702 
	C127.164673,23.771702 127.034286,23.840794 127.112061,23.475998 
	C127.083672,22.398779 126.977493,21.686354 126.948746,20.512859 
	C127.017456,13.701191 127.008728,7.350595 127.000000,1.000000 
	C131.024551,1.000000 135.049088,1.000000 139.536819,0.999999 
z"/>
<path fill="#12388F" opacity="1.000000" stroke="none" 
	d="
M99.375488,37.944042 
	C101.881859,26.906778 104.743370,15.805151 107.589630,4.699613 
	C107.833366,3.748605 107.975632,2.771595 108.082520,1.403332 
	C113.354927,1.000000 118.709862,1.000000 124.555573,1.320841 
	C125.339188,2.443961 125.632034,3.246240 125.924873,4.048519 
	C122.007248,4.031751 118.060181,4.307646 114.180153,3.917235 
	C110.170631,3.513796 108.952370,5.728578 108.159439,8.912621 
	C106.969429,13.691122 105.680496,18.444952 104.442329,23.211538 
	C104.276917,23.848356 103.891273,24.585739 104.066254,25.128771 
	C105.792397,30.485889 102.140007,33.964165 99.375488,37.944042 
z"/>
<path fill="#DDEDF9" opacity="1.000000" stroke="none" 
	d="
M116.136208,40.986309 
	C115.896820,46.064560 115.657425,51.142811 115.709015,56.610531 
	C113.629440,57.000000 111.258888,57.000000 108.485367,56.614273 
	C110.431389,47.590378 112.780365,38.952206 115.129341,30.314037 
	C115.464966,30.392189 115.800583,30.470341 116.136208,30.548492 
	C116.136208,34.027763 116.136208,37.507038 116.136208,40.986309 
z"/>
<path fill="#E5F2FB" opacity="1.000000" stroke="none" 
	d="
M133.889221,32.413548 
	C133.918427,34.740707 134.156128,37.461323 133.631790,40.026161 
	C132.519363,45.467674 131.009995,50.828049 129.831680,56.610847 
	C127.629440,57.000000 125.258888,57.000000 122.444168,57.000000 
	C125.917473,48.912140 129.834946,40.824280 133.889221,32.413548 
z"/>
<path fill="#EA8A1D" opacity="1.000000" stroke="none" 
	d="
M5.000000,1.000000 
	C23.354227,1.000000 41.708454,1.000000 60.533272,1.335683 
	C60.996513,2.118862 60.989166,2.566359 60.515213,3.008329 
	C43.644474,3.000049 27.239855,2.941312 10.836946,3.082131 
	C9.217071,3.096038 7.607680,4.331306 5.718684,4.770525 
	C5.295964,3.360908 5.147982,2.180454 5.000000,1.000000 
z"/>
<path fill="#12388F" opacity="1.000000" stroke="none" 
	d="
M116.519424,40.887501 
	C116.136208,37.507038 116.136208,34.027763 116.136208,30.548492 
	C115.800583,30.470341 115.464966,30.392189 115.129341,30.314037 
	C112.780365,38.952206 110.431389,47.590378 108.041199,56.614273 
	C106.611107,57.000000 105.222221,57.000000 103.416664,57.000000 
	C103.004234,56.834335 102.937813,56.598366 103.022743,56.513004 
	C110.496681,49.001526 109.962654,38.443020 113.381805,29.391544 
	C113.770287,28.363125 114.505447,27.465658 115.097092,26.478724 
	C118.418373,29.202301 119.111359,35.442776 116.519424,40.887501 
z"/>
<path fill="#27458D" opacity="1.000000" stroke="none" 
	d="
M191.848969,28.056953 
	C191.884048,28.236223 191.919144,28.415499 192.038574,29.139818 
	C192.138840,30.106642 192.154755,30.528423 192.170685,30.950207 
	C191.109985,34.709923 190.049286,38.469639 189.075684,42.616432 
	C189.162796,43.003517 189.056381,43.468758 188.682343,43.882080 
	C188.083206,51.135628 182.341965,53.500145 178.000000,57.000000 
	C177.555557,57.000000 177.111099,57.000000 176.346909,56.746162 
	C176.027176,56.322865 176.027206,56.153400 176.185852,55.684311 
	C188.374191,48.773380 190.971313,38.388630 188.380066,25.860634 
	C188.597092,25.879780 189.031494,25.846376 189.183075,26.046984 
	C189.487961,26.315699 189.641281,26.383806 189.925598,26.686924 
	C190.654068,27.300276 191.251511,27.678616 191.848969,28.056953 
z"/>
<path fill="#F8FDF8" opacity="1.000000" stroke="none" 
	d="
M178.460632,57.000000 
	C182.341965,53.500145 188.083206,51.135628 188.640778,44.117065 
	C189.319534,48.036461 189.665802,52.134201 190.006042,56.615971 
	C186.307098,57.000000 182.614182,57.000000 178.460632,57.000000 
z"/>
<path fill="#DA8F36" opacity="1.000000" stroke="none" 
	d="
M60.981815,3.013856 
	C60.989166,2.566359 60.996513,2.118862 61.001930,1.335683 
	C61.750000,1.000000 62.500000,1.000000 63.625000,1.000000 
	C63.240791,2.961640 62.481579,4.923279 61.089729,6.992780 
	C59.973267,7.163479 59.489449,7.226316 58.541214,7.224559 
	C41.667248,7.258151 25.257700,7.356339 8.851677,7.304020 
	C8.855201,7.153513 9.034393,6.911545 9.323839,6.613441 
	C11.261928,6.201744 12.910394,5.992623 14.559241,5.989575 
	C28.558130,5.963695 42.557098,5.983217 56.556015,5.967202 
	C58.649494,5.964807 61.213116,6.551189 60.981815,3.013856 
z"/>
<path fill="#07318F" opacity="1.000000" stroke="none" 
	d="
M87.516586,49.046967 
	C87.306068,51.402378 86.725876,53.811306 86.072838,56.610115 
	C77.645767,57.000000 69.291534,57.000000 60.463314,56.664581 
	C59.994713,55.881767 60.000103,55.434364 60.005493,54.986965 
	C68.019653,54.986965 76.033813,54.986965 83.543060,54.986965 
	C84.921509,52.735424 86.034203,50.917953 87.516586,49.046967 
z"/>
<path fill="#1B3B87" opacity="1.000000" stroke="none" 
	d="
M191.960434,2.845303 
	C191.960434,2.845303 192.116745,3.264540 191.723999,3.572755 
	C182.933029,2.981812 174.334518,0.630556 167.118423,7.682535 
	C166.537292,8.250452 164.901672,7.739360 163.756073,7.729677 
	C166.678116,5.640836 169.600159,3.551994 172.761108,1.231576 
	C178.354935,1.000000 183.709854,1.000000 189.580444,1.288314 
	C190.717560,1.999519 191.338989,2.422411 191.960434,2.845303 
z"/>
<path fill="#1B3D8B" opacity="1.000000" stroke="none" 
	d="
M60.010571,54.586845 
	C60.000103,55.434364 59.994713,55.881767 59.994659,56.664581 
	C59.250000,57.000000 58.500000,57.000000 57.375000,57.000000 
	C57.687412,53.937824 58.374828,50.875648 59.435860,47.271389 
	C61.035088,42.688770 62.260696,38.648232 63.628113,34.715519 
	C63.769917,34.823345 64.054970,35.037083 64.054970,35.037083 
	C64.596848,41.818611 61.667522,47.867939 60.010571,54.586845 
z"/>
<path fill="#072F8C" opacity="1.000000" stroke="none" 
	d="
M176.027222,55.983932 
	C176.027206,56.153400 176.027176,56.322865 176.013580,56.746162 
	C170.645065,57.000000 165.290146,57.000000 159.467606,57.000000 
	C158.114899,56.120121 157.229782,55.240238 156.311630,53.825706 
	C156.956741,52.866158 157.634903,52.441261 158.313065,52.016369 
	C159.429443,56.118687 162.785538,54.781933 165.520737,55.009182 
	C169.025696,55.300381 172.525299,55.656048 176.027222,55.983932 
z"/>
<path fill="#1B3D8B" opacity="1.000000" stroke="none" 
	d="
M83.536819,1.000000 
	C82.652542,1.895492 80.903282,3.841584 80.026550,3.506273 
	C76.035835,1.980007 73.972359,4.467508 71.315262,6.413277 
	C70.992554,4.424022 70.996277,2.712011 71.000000,1.000000 
	C75.024544,1.000000 79.049088,1.000000 83.536819,1.000000 
z"/>
<path fill="#DFA462" opacity="1.000000" stroke="none" 
	d="
M42.453262,51.428890 
	C44.734188,51.123692 47.122261,51.123692 49.938305,51.123692 
	C49.621643,53.136387 49.379318,54.676617 49.068497,56.608421 
	C47.933331,57.000000 46.866661,57.000000 45.399994,57.000000 
	C44.186806,55.244698 43.373611,53.489391 42.453262,51.428890 
z"/>
<path fill="#FAF5E6" opacity="1.000000" stroke="none" 
	d="
M204.453888,12.913580 
	C204.357239,11.575951 204.547272,10.093801 204.870026,8.055495 
	C205.000671,7.332528 204.998596,7.165718 204.996536,6.998907 
	C204.371353,5.235374 203.746155,3.471842 203.060486,1.354154 
	C204.388885,1.000000 205.777786,1.000000 207.583328,1.000000 
	C207.812714,2.912582 207.625443,4.825165 207.715729,6.980935 
	C207.758011,8.236323 207.522736,9.248526 207.153671,10.549347 
	C206.260117,11.481664 205.500351,12.125363 204.453888,12.913580 
z"/>
<path fill="#12388F" opacity="1.000000" stroke="none" 
	d="
M94.333328,57.000000 
	C95.439873,51.046810 96.879738,45.093616 98.595245,38.848774 
	C97.920349,44.436829 96.969810,50.316532 96.009636,56.598122 
	C95.555557,57.000000 95.111107,57.000000 94.333328,57.000000 
z"/>
<path fill="#103078" opacity="1.000000" stroke="none" 
	d="
M125.940384,4.468792 
	C125.632034,3.246240 125.339188,2.443961 125.023178,1.320841 
	C125.444443,1.000000 125.888893,1.000000 126.666672,1.000000 
	C127.008728,7.350595 127.017456,13.701191 126.718857,20.524443 
	C126.411537,20.997099 125.951569,21.015404 125.951569,21.015404 
	C125.953011,15.639957 125.954453,10.264512 125.940384,4.468792 
z"/>
<path fill="#DEF0FB" opacity="1.000000" stroke="none" 
	d="
M70.666672,1.000000 
	C70.996277,2.712011 70.992554,4.424022 71.008545,6.566292 
	C71.028252,6.996551 70.815178,7.312064 70.578796,7.773131 
	C69.604164,10.580994 68.865913,12.927789 68.127670,15.274586 
	C68.422951,10.799598 68.718239,6.324609 69.006760,1.424810 
	C69.444443,1.000000 69.888893,1.000000 70.666672,1.000000 
z"/>
<path fill="#FBFAED" opacity="1.000000" stroke="none" 
	d="
M7.977666,11.002172 
	C5.853828,9.767731 3.729991,8.533289 1.303077,7.149424 
	C1.000000,5.933331 1.000000,4.866662 1.303404,3.522828 
	C2.722430,4.535340 3.838053,5.825015 5.036998,7.288702 
	C5.442470,7.441506 5.764619,7.420300 6.342518,7.319530 
	C6.745850,7.139454 6.893432,7.038940 7.372009,7.000300 
	C8.146800,7.011965 8.590596,6.961755 9.034393,6.911545 
	C9.034393,6.911545 8.855201,7.153513 8.894137,7.675775 
	C9.041910,9.197027 9.150745,10.196018 9.252451,11.212826 
	C9.245322,11.230641 9.248601,11.269878 8.934268,11.186806 
	C8.405846,11.069880 8.191755,11.036026 7.977666,11.002172 
z"/>
<path fill="#1A3B80" opacity="1.000000" stroke="none" 
	d="
M100.600006,0.999999 
	C100.261734,3.907529 99.523468,6.815060 98.519310,9.982359 
	C97.836433,7.436770 97.419449,4.631412 97.001228,1.413027 
	C98.066673,1.000000 99.133339,1.000000 100.600006,0.999999 
z"/>
<path fill="#DA8F36" opacity="1.000000" stroke="none" 
	d="
M7.041014,6.938426 
	C6.893432,7.038940 6.745850,7.139454 6.077807,7.173150 
	C5.356123,7.109118 5.154899,7.111904 4.953675,7.114690 
	C3.838053,5.825015 2.722430,4.535340 1.303404,3.122832 
	C0.488351,0.065859 2.693802,1.207369 4.500000,1.000000 
	C5.147982,2.180454 5.295964,3.360908 5.721970,4.770957 
	C5.999994,5.000553 6.002052,5.006462 6.107895,5.225616 
	C6.417227,5.718181 6.685842,5.889496 7.039866,6.203318 
	C7.060152,6.447918 7.041014,6.938426 7.041014,6.938426 
z"/>
<path fill="#1B3D8B" opacity="1.000000" stroke="none" 
	d="
M91.583336,1.000000 
	C90.803360,4.105598 89.047806,3.426271 87.070129,1.358817 
	C88.388893,1.000000 89.777779,1.000000 91.583336,1.000000 
z"/>
<path fill="#FAF5E6" opacity="1.000000" stroke="none" 
	d="
M191.973969,2.538186 
	C191.338989,2.422411 190.717560,1.999519 190.048065,1.288314 
	C190.444443,1.000000 190.888885,1.000000 191.666656,1.000000 
	C191.995834,1.410356 191.991669,1.820712 191.973969,2.538186 
z"/>
<path fill="#F8FDF8" opacity="1.000000" stroke="none" 
	d="
M205.000000,31.999926 
	C205.121536,32.141781 205.243088,32.283710 205.364624,32.425644 
	C205.278961,32.376255 205.193283,32.326862 205.053802,32.138813 
	C205.000000,32.000153 205.000000,32.000000 205.000000,31.999926 
z"/>
<path fill="#0431A8" opacity="1.000000" stroke="none" 
	d="
M144.649261,40.945900 
	C143.866852,44.518932 142.861481,48.084465 141.503601,51.510281 
	C141.215820,52.236362 139.640732,52.452217 138.658768,52.903160 
	C138.102646,51.545185 137.546524,50.187210 137.326630,48.230244 
	C139.549545,44.275776 140.325760,40.996311 137.003418,37.997375 
	C137.003738,37.554913 137.004059,37.112446 137.007751,36.338280 
	C139.440948,37.633911 141.870758,39.261242 144.649261,40.945900 
z"/>
<path fill="#103791" opacity="1.000000" stroke="none" 
	d="
M127.151466,24.113010 
	C128.541977,21.528940 129.919266,19.286177 131.581451,16.845222 
	C131.087296,19.336901 130.349228,22.040983 129.433075,24.683317 
	C129.374619,24.851936 127.935234,24.541758 127.151466,24.113010 
z"/>
<path fill="#103791" opacity="1.000000" stroke="none" 
	d="
M125.702026,21.226677 
	C125.951569,21.015404 126.411537,20.997099 126.641426,20.985516 
	C126.977493,21.686354 127.083672,22.398779 127.185600,23.470041 
	C126.605064,23.031904 126.028770,22.234928 125.702026,21.226677 
z"/>
<path fill="#1B3D8B" opacity="1.000000" stroke="none" 
	d="
M68.142639,15.468170 
	C68.865913,12.927789 69.604164,10.580994 70.598114,7.962510 
	C71.825699,17.358810 67.052597,25.690594 64.329346,34.800018 
	C64.054970,35.037083 63.769917,34.823345 63.669449,34.321640 
	C65.028938,27.876356 66.488899,21.932779 67.948860,15.989203 
	C67.948860,15.989203 68.157608,15.661757 68.142639,15.468170 
z"/>
<path fill="#15367A" opacity="1.000000" stroke="none" 
	d="
M91.509857,34.048317 
	C91.133240,34.672363 90.401840,35.865795 89.589165,35.923985 
	C86.389725,36.153053 83.164726,36.025139 79.492432,35.976181 
	C80.645035,35.548740 82.238037,35.059231 83.867683,34.828217 
	C86.270668,34.487579 88.699760,34.331028 91.509857,34.048317 
z"/>
<path fill="#15367A" opacity="1.000000" stroke="none" 
	d="
M77.873146,36.162319 
	C78.111282,38.528770 77.948296,40.903606 77.946304,43.611198 
	C74.610008,41.621391 75.310112,38.955784 77.873146,36.162319 
z"/>
<path fill="#07318F" opacity="1.000000" stroke="none" 
	d="
M86.964340,44.443886 
	C87.319153,44.873848 87.653755,45.580124 87.919113,46.649788 
	C87.547943,46.248852 87.246040,45.484524 86.964340,44.443886 
z"/>
<path fill="#1A3B80" opacity="1.000000" stroke="none" 
	d="
M98.133591,10.221415 
	C98.335968,10.239259 98.332993,10.657928 98.190582,10.810759 
	C97.893936,10.775064 97.739716,10.586540 97.585487,10.398015 
	C97.700729,10.333200 97.815964,10.268385 98.133591,10.221415 
z"/>
<path fill="#E78B26" opacity="1.000000" stroke="none" 
	d="
M57.756107,21.295637 
	C57.348400,23.110483 56.940693,24.925329 55.821934,26.898628 
	C45.677067,27.071623 36.240330,27.216961 26.811514,27.006922 
	C24.511160,26.955679 22.236778,25.738417 19.950455,25.057270 
	C19.950455,25.057270 20.004465,25.011908 19.952145,24.752592 
	C19.605125,24.315170 19.310429,24.137064 19.015728,23.958958 
	C18.762655,23.455858 18.509583,22.952759 18.201588,22.028337 
	C18.146667,21.607016 18.223883,21.194151 18.436443,21.171173 
	C18.649004,21.148195 19.029345,20.952797 19.490971,21.016567 
	C32.553768,21.152105 45.154938,21.223871 57.756107,21.295637 
z"/>
<path fill="#FDECBE" opacity="1.000000" stroke="none" 
	d="
M19.929550,25.395817 
	C22.236778,25.738417 24.511160,26.955679 26.811514,27.006922 
	C36.240330,27.216961 45.677067,27.071623 55.573914,27.151562 
	C55.990376,28.279842 55.943806,29.313644 55.581142,30.744488 
	C55.083912,31.178938 54.902775,31.216349 54.272217,31.215931 
	C44.912716,31.130478 36.002640,31.082853 27.092562,31.035227 
	C25.292578,30.054895 23.492596,29.074564 21.332424,28.091164 
	C20.617704,27.303516 20.263176,26.518940 19.929550,25.395817 
z"/>
<path fill="#FFFAE9" opacity="1.000000" stroke="none" 
	d="
M19.029345,20.952797 
	C19.029345,20.952797 18.649004,21.148195 18.151455,21.187288 
	C17.391628,21.495726 17.129351,21.765072 16.867075,22.034416 
	C15.251604,20.928072 13.636133,19.821728 12.299994,18.335339 
	C13.045579,17.693804 13.511836,17.432312 14.351119,17.157570 
	C15.460585,17.239281 16.197023,17.334240 17.015057,17.719995 
	C17.740881,18.991461 18.385113,19.972128 19.029345,20.952797 
z"/>
<path fill="#FEF1C7" opacity="1.000000" stroke="none" 
	d="
M7.987083,11.384958 
	C8.191755,11.036026 8.405846,11.069880 9.093611,11.435129 
	C10.435297,13.121186 11.303308,14.475849 12.061070,15.933926 
	C11.950821,16.037338 11.722919,16.235973 11.722919,16.235973 
	C8.923714,16.045126 7.757368,14.492506 7.987083,11.384958 
z"/>
<path fill="#FEF1C7" opacity="1.000000" stroke="none" 
	d="
M13.978092,17.170820 
	C13.511836,17.432312 13.045579,17.693804 12.298722,17.965940 
	C11.968788,17.586102 11.919456,17.195616 11.796520,16.520554 
	C11.722919,16.235973 11.950821,16.037338 12.340159,16.019512 
	C13.145697,16.391396 13.561894,16.781109 13.978092,17.170820 
z"/>
<path fill="#FCFBEE" opacity="1.000000" stroke="none" 
	d="
M28.532005,40.549202 
	C28.477306,40.581692 28.586704,40.516716 28.532005,40.549202 
z"/>
<path fill="#FDECBE" opacity="1.000000" stroke="none" 
	d="
M19.068348,24.211512 
	C19.310429,24.137064 19.605125,24.315170 19.919353,24.764923 
	C19.666243,24.845736 19.393604,24.654900 19.068348,24.211512 
z"/>
<path fill="#FDECBE" opacity="1.000000" stroke="none" 
	d="
M17.138187,22.045883 
	C17.129351,21.765072 17.391628,21.495726 17.938892,21.210266 
	C18.223883,21.194151 18.146667,21.607016 18.046244,21.791311 
	C17.766981,22.002853 17.588140,22.030102 17.138187,22.045883 
z"/>
<path fill="#07349F" opacity="1.000000" stroke="none" 
	d="
M176.185852,55.684311 
	C172.525299,55.656048 169.025696,55.300381 165.520737,55.009182 
	C162.785538,54.781933 159.429443,56.118687 158.313065,52.016369 
	C157.634903,52.441261 156.956741,52.866158 156.138153,53.561630 
	C152.267685,50.836983 151.346008,44.910370 154.229187,41.502628 
	C154.755157,40.880955 156.084076,40.380676 156.824249,40.591171 
	C160.812057,41.725250 166.024994,37.685905 169.041931,43.484463 
	C169.304977,43.990032 172.749756,43.804279 173.083786,43.130337 
	C174.139069,41.001217 174.655823,38.502441 174.808548,36.110130 
	C174.841522,35.593914 172.525101,34.562195 171.213181,34.401314 
	C168.437546,34.060917 165.610641,34.138454 162.399094,33.556244 
	C161.620682,29.480812 160.694397,25.844305 161.009109,22.318571 
	C161.445847,17.425987 162.814255,12.616572 163.783798,7.771552 
	C163.783798,7.771552 163.786484,7.742423 163.771271,7.736049 
	C164.901672,7.739360 166.537292,8.250452 167.118423,7.682535 
	C174.334518,0.630556 182.933029,2.981812 191.763916,3.792885 
	C192.196564,3.704799 192.143158,3.722282 192.227493,4.007793 
	C192.651733,4.447262 192.991638,4.601220 193.331543,4.755177 
	C193.331543,4.755177 193.206543,4.776985 193.184265,5.065256 
	C193.747879,5.911779 194.333771,6.470032 194.943726,7.449228 
	C194.975937,14.743768 193.766022,15.991879 187.046555,16.007332 
	C185.069199,16.011881 183.091766,15.981174 181.054077,15.741964 
	C180.993774,15.517303 180.951309,15.054020 180.817383,14.722597 
	C178.281723,12.090590 176.214523,12.599695 174.856262,15.404539 
	C173.850998,17.480417 170.172043,19.618328 174.916412,22.126221 
	C176.565292,22.286398 177.763763,22.393923 179.072510,22.818918 
	C182.178726,24.043224 185.174683,24.950062 188.157379,25.869909 
	C188.144119,25.882919 188.163025,25.841490 188.163025,25.841490 
	C190.971313,38.388630 188.374191,48.773380 176.185852,55.684311 
z"/>
<path fill="#1B3B87" opacity="1.000000" stroke="none" 
	d="
M163.479645,7.988470 
	C162.814255,12.616572 161.445847,17.425987 161.009109,22.318571 
	C160.694397,25.844305 161.620682,29.480812 162.003693,33.449997 
	C157.626541,31.553995 157.170441,28.231031 158.743683,23.792067 
	C160.544418,18.711145 161.725296,13.410542 163.479645,7.988470 
z"/>
<path fill="#E88B22" opacity="1.000000" stroke="none" 
	d="
M14.351119,17.157570 
	C13.561894,16.781109 13.145697,16.391396 12.450409,15.916098 
	C11.303308,14.475849 10.435297,13.121186 9.407944,11.518201 
	C9.248601,11.269878 9.245322,11.230641 9.696667,11.209343 
	C26.651236,11.188046 43.154461,11.188046 60.207741,11.188046 
	C59.777824,13.572846 59.464725,15.309664 59.151623,17.046482 
	C58.963654,17.078814 58.775688,17.111143 57.865593,17.168297 
	C43.740128,17.271811 30.336796,17.350506 16.933462,17.429199 
	C16.197023,17.334240 15.460585,17.239281 14.351119,17.157570 
z"/>
<path fill="#FEF1C7" opacity="1.000000" stroke="none" 
	d="
M59.498062,16.976357 
	C59.464725,15.309664 59.777824,13.572846 60.207741,11.188046 
	C43.154461,11.188046 26.651236,11.188046 9.703796,11.191527 
	C9.150745,10.196018 9.041910,9.197027 8.890614,7.826282 
	C25.257700,7.356339 41.667248,7.258151 58.743568,7.419700 
	C59.959236,7.811089 60.508129,7.942740 61.057026,8.074392 
	C60.652851,11.018338 60.248676,13.962284 59.498062,16.976357 
z"/>
<path fill="#E58B26" opacity="1.000000" stroke="none" 
	d="
M27.002708,31.356674 
	C36.002640,31.082853 44.912716,31.130478 54.310432,31.515331 
	C54.900459,32.240730 55.002853,32.628902 55.105251,33.017075 
	C55.035904,33.407745 54.966557,33.798412 54.614349,34.624214 
	C54.271408,35.387363 54.211330,35.715374 54.151253,36.043388 
	C49.608696,36.456966 45.069500,36.914318 40.521946,37.262596 
	C38.701092,37.402050 36.861847,37.301323 34.270992,37.239544 
	C33.306152,37.222378 33.101288,37.275589 32.896427,37.328804 
	C31.632792,37.066246 30.369154,36.803684 29.027168,36.002113 
	C28.664951,35.258560 28.381081,35.054020 28.097212,34.849483 
	C28.097212,34.849483 27.962234,34.440086 27.888647,33.993088 
	C27.550329,33.365601 27.285601,33.185112 27.020870,33.004623 
	C26.984867,32.562454 26.948862,32.120289 27.002708,31.356674 
z"/>
<path fill="#FEF1C7" opacity="1.000000" stroke="none" 
	d="
M17.015057,17.719997 
	C30.336796,17.350506 43.740128,17.271811 57.608467,17.293736 
	C58.011337,18.436935 57.949211,19.479519 57.821594,20.908871 
	C45.154938,21.223871 32.553768,21.152105 19.490971,21.016567 
	C18.385113,19.972128 17.740881,18.991461 17.015057,17.719997 
z"/>
<path fill="#DEF0FB" opacity="1.000000" stroke="none" 
	d="
M67.597931,16.034660 
	C66.488899,21.932779 65.028938,27.876356 63.527641,34.213814 
	C62.260696,38.648232 61.035088,42.688770 59.478542,46.885277 
	C58.089321,46.356430 57.031036,45.671616 57.094841,45.712902 
	C58.550026,40.737167 59.983582,36.589645 60.942802,32.335175 
	C61.832882,28.387362 64.524658,24.919834 63.627918,20.385303 
	C63.400208,19.233843 65.965218,17.530096 67.597931,16.034660 
z"/>
<path fill="#E78B2B" opacity="1.000000" stroke="none" 
	d="
M50.132099,47.133278 
	C49.967121,47.165359 49.802139,47.197445 49.066360,47.183006 
	C48.284142,47.199837 48.072716,47.263191 47.861294,47.326546 
	C45.527779,47.305450 43.194267,47.284351 40.297874,46.945053 
	C38.559010,45.692097 37.383026,44.757343 36.207043,43.822590 
	C36.207043,43.822590 36.019821,43.472252 36.003624,42.968376 
	C36.019409,42.013332 36.051395,41.562160 36.083382,41.110989 
	C40.166943,41.078781 44.263988,41.238655 48.329784,40.953316 
	C51.555126,40.726955 52.452965,42.034824 51.543316,45.421024 
	C50.842319,46.320469 50.487209,46.726871 50.132099,47.133278 
z"/>
<path fill="#EFC792" opacity="1.000000" stroke="none" 
	d="
M36.156921,44.162506 
	C37.383026,44.757343 38.559010,45.692097 39.858608,46.938179 
	C38.690418,46.333809 37.398609,45.418114 36.156921,44.162506 
z"/>
<path fill="#EFC792" opacity="1.000000" stroke="none" 
	d="
M35.779835,41.061348 
	C36.051395,41.562160 36.019409,42.013332 35.906689,42.795029 
	C35.709396,42.420937 35.592842,41.716324 35.779835,41.061348 
z"/>
<path fill="#EFC792" opacity="1.000000" stroke="none" 
	d="
M50.446354,47.125084 
	C50.487209,46.726871 50.842319,46.320469 51.466255,45.837807 
	C51.410255,46.213329 51.085434,46.665112 50.446354,47.125084 
z"/>
<path fill="#FEDCA3" opacity="1.000000" stroke="none" 
	d="
M61.093231,7.893042 
	C60.508129,7.942740 59.959236,7.811089 59.207985,7.484295 
	C59.489449,7.226316 59.973267,7.163479 60.806194,7.221689 
	C61.155304,7.342737 61.129433,7.711691 61.093231,7.893042 
z"/>
<path fill="#FDECBE" opacity="1.000000" stroke="none" 
	d="
M26.841902,33.114113 
	C27.285601,33.185112 27.550329,33.365601 27.793888,33.799500 
	C27.402790,33.776474 27.032862,33.500038 26.841902,33.114113 
z"/>
<path fill="#FBD69B" opacity="1.000000" stroke="none" 
	d="
M55.324070,32.851013 
	C55.002853,32.628902 54.900459,32.240730 54.759850,31.553160 
	C54.902775,31.216349 55.083912,31.178938 55.540600,31.132282 
	C55.725063,31.643671 55.633976,32.164310 55.324070,32.851013 
z"/>
<path fill="#FBD69B" opacity="1.000000" stroke="none" 
	d="
M33.013428,37.481777 
	C33.101288,37.275589 33.306152,37.222378 33.811867,37.271870 
	C33.785286,37.461296 33.457859,37.548023 33.013428,37.481777 
z"/>
<path fill="#FBD69B" opacity="1.000000" stroke="none" 
	d="
M54.370991,35.901466 
	C54.211330,35.715374 54.271408,35.387363 54.547295,34.914337 
	C54.705647,35.099400 54.648190,35.429470 54.370991,35.901466 
z"/>
<path fill="#FDECBE" opacity="1.000000" stroke="none" 
	d="
M28.147682,35.090801 
	C28.381081,35.054020 28.664951,35.258560 28.924664,35.734650 
	C28.594389,35.856514 28.360270,35.631821 28.147682,35.090801 
z"/>
<path fill="#EFC792" opacity="1.000000" stroke="none" 
	d="
M47.993767,47.475075 
	C48.072716,47.263191 48.284142,47.199837 48.816742,47.218369 
	C48.800697,47.408039 48.463470,47.515820 47.993767,47.475075 
z"/>
<path fill="#F9860A" opacity="1.000000" stroke="none" 
	d="
M257.000000,5.012321 
	C241.191971,5.012337 225.883942,5.012337 210.575912,5.012337 
	C210.579437,4.547631 210.582947,4.082926 210.586472,3.618220 
	C239.819473,3.618220 269.052460,3.618220 298.285461,3.618220 
	C298.296967,4.082915 298.308441,4.547611 298.319916,5.012306 
	C284.713287,5.012306 271.106628,5.012306 257.000000,5.012321 
z"/>
<path fill="#0433A0" opacity="1.000000" stroke="none" 
	d="
M136.749268,38.193047 
	C140.325760,40.996311 139.549545,44.275776 137.326447,47.816772 
	C133.112015,44.988934 136.609894,41.595825 136.749268,38.193047 
z"/>
<path fill="#E5F4FB" opacity="1.000000" stroke="none" 
	d="
M180.951309,15.054020 
	C180.951309,15.054020 180.993774,15.517303 180.943481,16.176308 
	C184.930527,17.275034 188.967865,17.714756 193.005188,18.154472 
	C192.542877,18.742485 192.080566,19.330502 190.961731,19.959824 
	C186.488052,20.235928 189.382553,22.648468 189.010025,24.307831 
	C189.018784,25.025789 189.025131,25.436083 189.031494,25.846376 
	C189.031494,25.846376 188.597092,25.879780 188.380066,25.860634 
	C188.163025,25.841490 188.144119,25.882919 188.014420,25.544281 
	C185.507690,22.333990 182.540680,21.409006 178.962234,22.501448 
	C177.763763,22.393923 176.565292,22.286398 174.962784,21.709507 
	C175.462082,17.909611 175.311234,13.489737 180.951309,15.054020 
z"/>
<path fill="#203F7F" opacity="1.000000" stroke="none" 
	d="
M193.257599,18.090368 
	C188.967865,17.714756 184.930527,17.275034 181.003784,16.400969 
	C183.091766,15.981174 185.069199,16.011881 187.046555,16.007332 
	C193.766022,15.991879 194.975937,14.743768 195.220520,7.436255 
	C195.657364,6.999376 195.841476,6.996413 196.246368,7.034679 
	C196.467148,7.075907 196.914368,7.118050 196.914368,7.118050 
	C196.948776,7.290877 196.983170,7.463705 197.052368,8.213401 
	C197.053467,9.506392 197.019775,10.222517 196.986084,10.938642 
	C196.326996,12.999554 195.667877,15.060466 194.734192,17.540165 
	C194.459595,17.958950 194.017654,18.142912 194.017654,18.142912 
	C193.848434,18.104027 193.679214,18.065144 193.257599,18.090368 
z"/>
<path fill="#FEFEFE" opacity="1.000000" stroke="none" 
	d="
M192.249329,28.039240 
	C191.251511,27.678616 190.654068,27.300276 190.050430,26.367359 
	C190.362106,25.209049 190.679977,24.605316 190.998932,24.000792 
	C191.000000,24.000000 191.001831,23.998135 191.001831,23.998135 
	C192.596588,24.700193 194.191345,25.402252 195.786102,26.104307 
	C194.740631,26.743380 193.695145,27.382452 192.249329,28.039240 
z"/>
<path fill="#FEFEFE" opacity="1.000000" stroke="none" 
	d="
M204.667282,6.856557 
	C204.998596,7.165718 205.000671,7.332528 205.000763,7.749564 
	C203.561661,8.630831 202.124542,9.261870 200.341507,9.614802 
	C199.995300,8.895309 199.995010,8.453924 199.994720,8.012540 
	C201.442490,7.579762 202.890259,7.146985 204.667282,6.856557 
z"/>
<path fill="#FEFEFE" opacity="1.000000" stroke="none" 
	d="
M189.007614,24.000164 
	C189.382553,22.648468 186.488052,20.235928 190.655334,19.996536 
	C191.003357,21.060394 191.001205,22.128843 191.000443,23.597713 
	C191.001831,23.998135 191.000000,24.000000 190.667206,24.000305 
	C189.892136,24.000460 189.449875,24.000311 189.007614,24.000164 
z"/>
<path fill="#FEFEFE" opacity="1.000000" stroke="none" 
	d="
M201.649475,17.002609 
	C201.573975,17.965645 201.143082,18.936178 200.369843,19.967848 
	C200.449677,19.022690 200.871872,18.016399 201.649475,17.002609 
z"/>
<path fill="#1B3B87" opacity="1.000000" stroke="none" 
	d="
M196.025589,6.993453 
	C195.841476,6.996413 195.657364,6.999376 195.196457,7.015311 
	C194.333771,6.470032 193.747879,5.911779 193.218475,5.011818 
	C193.592484,4.798672 193.910019,4.927234 194.592270,5.379045 
	C195.313187,6.132681 195.669388,6.563069 196.025589,6.993453 
z"/>
<path fill="#FAF5E6" opacity="1.000000" stroke="none" 
	d="
M196.246368,7.034681 
	C195.669388,6.563069 195.313187,6.132681 194.844498,5.443421 
	C195.472229,5.613640 196.212463,6.042733 196.933533,6.794938 
	C196.914368,7.118050 196.467148,7.075907 196.246368,7.034681 
z"/>
<path fill="#FAF5E6" opacity="1.000000" stroke="none" 
	d="
M199.771179,8.159288 
	C199.995010,8.453924 199.995300,8.895309 199.996094,9.667843 
	C199.846954,9.434673 199.697296,8.870357 199.771179,8.159288 
z"/>
<path fill="#FAF5E6" opacity="1.000000" stroke="none" 
	d="
M197.229782,10.787838 
	C197.019775,10.222517 197.053467,9.506392 197.182281,8.443606 
	C197.342743,8.943641 197.408112,9.790338 197.229782,10.787838 
z"/>
<path fill="#FAF5E6" opacity="1.000000" stroke="none" 
	d="
M192.362488,30.807678 
	C192.154755,30.528423 192.138840,30.106642 192.183502,29.372375 
	C192.347458,29.594976 192.450867,30.130064 192.362488,30.807678 
z"/>
<path fill="#1B3B87" opacity="1.000000" stroke="none" 
	d="
M193.234039,4.495675 
	C192.991638,4.601220 192.651733,4.447262 192.248718,4.005663 
	C192.502594,3.890738 192.819565,4.063455 193.234039,4.495675 
z"/>
<path fill="#E5F4FB" opacity="1.000000" stroke="none" 
	d="
M194.136612,18.286598 
	C194.017654,18.142912 194.459595,17.958950 194.691788,17.901667 
	C194.701172,18.039682 194.478378,18.234983 194.136612,18.286598 
z"/>
<path fill="#FA8508" opacity="1.000000" stroke="none" 
	d="
M7.372009,7.000300 
	C7.041014,6.938426 7.060152,6.447918 6.925648,5.991696 
	C6.586894,5.271479 6.323863,5.095141 6.002052,5.006462 
	C6.002052,5.006462 5.999994,5.000553 5.996708,5.000121 
	C7.607680,4.331306 9.217071,3.096038 10.836946,3.082131 
	C27.239855,2.941312 43.644474,3.000049 60.515213,3.008329 
	C61.213116,6.551189 58.649494,5.964807 56.556015,5.967202 
	C42.557098,5.983217 28.558130,5.963695 14.559241,5.989575 
	C12.910394,5.992623 11.261928,6.201744 9.323839,6.613440 
	C8.590596,6.961755 8.146800,7.011965 7.372009,7.000300 
z"/>
<path fill="#F8FDF8" opacity="1.000000" stroke="none" 
	d="
M189.010025,24.307831 
	C189.449875,24.000311 189.892136,24.000460 190.666122,24.001095 
	C190.679977,24.605316 190.362106,25.209049 189.919403,26.132347 
	C189.641281,26.383806 189.487961,26.315699 189.183075,26.046984 
	C189.025131,25.436083 189.018784,25.025789 189.010025,24.307831 
z"/>
<path fill="#FEDCA3" opacity="1.000000" stroke="none" 
	d="
M5.036998,7.288702 
	C5.154899,7.111904 5.356123,7.109118 5.822058,7.252712 
	C5.764619,7.420300 5.442470,7.441506 5.036998,7.288702 
z"/>
<path fill="#EA8A1D" opacity="1.000000" stroke="none" 
	d="
M6.107895,5.225616 
	C6.323863,5.095141 6.586894,5.271479 6.905363,5.747096 
	C6.685842,5.889496 6.417227,5.718181 6.107895,5.225616 
z"/>
<path fill="#27458D" opacity="1.000000" stroke="none" 
	d="
M180.817383,14.722597 
	C175.311234,13.489737 175.462082,17.909611 174.512360,21.656853 
	C170.172043,19.618328 173.850998,17.480417 174.856262,15.404539 
	C176.214523,12.599695 178.281723,12.090590 180.817383,14.722597 
z"/>
<path fill="#27458D" opacity="1.000000" stroke="none" 
	d="
M179.072510,22.818918 
	C182.540680,21.409006 185.507690,22.333990 188.027679,25.531273 
	C185.174683,24.950062 182.178726,24.043224 179.072510,22.818918 
z"/>
</svg>