<?xml version="1.0" encoding="iso-8859-1"?>
<!-- Uploaded to: SVG Repo, www.svgrepo.com, Generator: SVG Repo Mixer Tools -->
<!DOCTYPE svg PUBLIC "-//W3C//DTD SVG 1.1//EN" "http://www.w3.org/Graphics/SVG/1.1/DTD/svg11.dtd">
<svg fill="#000000" height="800px" width="800px" version="1.1" id="Capa_1" xmlns="http://www.w3.org/2000/svg" xmlns:xlink="http://www.w3.org/1999/xlink" 
	 viewBox="0 0 410.51 410.51" xml:space="preserve">
<g>
	<g>
		<path d="M308.519,167.412c-1.163-7.624-6.767-13.706-13.944-15.135c-4.56-0.908-9.077,0.229-12.809,3.019
			c-3.73-2.788-8.248-3.923-12.808-3.019c-7.177,1.429-12.78,7.511-13.943,15.134c-0.862,5.65-0.261,20.212,23.879,33.38
			c0.912,0.498,1.896,0.733,2.868,0.733l0.005-0.02l0.005,0.02c0.972,0,1.956-0.235,2.868-0.733
			C308.781,187.624,309.382,173.062,308.519,167.412z M281.767,188.605c-15.101-9.12-15.242-17.066-14.89-19.384
			c0.465-3.043,2.619-4.816,4.424-5.175c2.502-0.498,4.285,1.46,5.334,3.191l0.002-0.001c0.485,0.803,1.164,1.505,2.022,2.025
			c2.835,1.716,6.523,0.81,8.24-2.025c1.048-1.731,2.824-3.689,5.332-3.191c1.806,0.359,3.96,2.132,4.425,5.176
			C297.011,171.54,296.869,179.486,281.767,188.605z"/>
		<path d="M404.51,248.182h-30.853c0.303-1.221,0.481-2.489,0.481-3.803V144.326c0-8.713-7.089-15.802-15.802-15.802h-4.804
			c-15.262-22.676-36.235-34.174-62.393-34.174h-58.974V20.036c0-3.313-2.686-6-6-6h-95.811c-3.313,0-6,2.687-6,6v35.782
			c0,3.314,2.687,6,6,6h70.938V94.35H89.873c-21.071,0-38.924,7.557-53.063,22.46C-4.26,160.102,0.015,250.665,0.218,254.499
			c0.168,3.186,2.8,5.684,5.991,5.684h152.149v130.291c0,3.313,2.687,6,6,6h39.132c3.313,0,6-2.687,6-6V260.182h195.02
			c3.313,0,6-2.686,6-6C410.51,250.869,407.823,248.182,404.51,248.182z M358.337,140.524c1.718,0,3.156,1.153,3.626,2.72
			c-10.722,9.661-58.076,52.264-66.856,58.957c-5.992,4.566-13.076,4.655-13.286,4.656c-0.018-0.001-0.037-0.001-0.057-0.001
			c-0.017,0-0.033,0.002-0.05,0.003c-0.014,0-0.025-0.002-0.039-0.002h-0.005c-0.218,0-7.234-0.073-13.248-4.656
			c-4.347-3.313-19.753-16.771-43.511-38.007c2.784-8.32,6.214-16.364,10.466-23.67H358.337z M248.581,201.165l-34.886,28.629
			c0.712-14.512,2.638-33.811,7.479-52.848C232.668,187.202,241.821,195.291,248.581,201.165z M338.521,128.524h-94.808
			c0.991-1.188,2.012-2.342,3.068-3.455c11.783-12.421,26.708-18.719,44.357-18.719C310.3,106.35,326.186,113.815,338.521,128.524z
			 M136.355,49.818V26.036h83.811v23.782H136.355z M220.166,61.818V94.35h-6.873V61.818H220.166z M45.515,125.069
			C57.3,112.648,72.223,106.35,89.873,106.35h160.495c-4.36,2.953-8.467,6.428-12.292,10.461
			c-35.335,37.247-37.102,109.483-36.779,131.372H12.056C11.825,227.933,13.51,158.807,45.515,125.069z M170.358,384.473V260.182
			h27.132v124.291H170.358z M213.324,248.182c-0.009-0.771-0.014-1.64-0.015-2.549l44.538-36.549
			c1.392,1.156,2.497,2.048,3.301,2.66c8.901,6.785,18.998,7.102,20.511,7.11c0.005,0,0.01,0.001,0.016,0.001
			c0.012,0,0.044,0,0.07,0c0.016,0,0.021,0,0.041,0h0.07c0.006,0,0.011-0.001,0.016-0.001c1.513-0.009,11.606-0.325,20.508-7.11
			c0.818-0.624,1.938-1.528,3.301-2.661l47.646,39.099H213.324z M362.138,239.891l-47.193-38.727
			c13.93-12.104,34.86-30.848,47.193-41.933V239.891z"/>
	</g>
</g>
</svg>