<?xml version="1.0" standalone="no"?>
<!DOCTYPE svg PUBLIC "-//W3C//DTD SVG 20010904//EN"
 "http://www.w3.org/TR/2001/REC-SVG-20010904/DTD/svg10.dtd">
<svg version="1.0" xmlns="http://www.w3.org/2000/svg"
 width="540.000000pt" height="360.000000pt" viewBox="0 0 540.000000 360.000000"
 preserveAspectRatio="xMidYMid meet">

<g transform="translate(0.000000,360.000000) scale(0.100000,-0.100000)"
fill="#000000" stroke="none">
<path d="M3086 3439 c-3 -34 -6 -196 -6 -361 l0 -298 -26 -10 c-37 -15 -141
-12 -204 5 -30 8 -73 14 -95 14 -36 -1 -34 -2 22 -13 69 -14 92 -26 47 -25
-16 0 -58 -2 -94 -5 -177 -14 -286 -15 -307 -3 -12 6 -22 14 -22 17 0 3 -2 12
-5 20 -4 8 -12 49 -19 90 -9 54 -16 75 -27 75 -36 0 -67 -134 -38 -163 9 -9 1
-12 -38 -12 -156 0 -307 -120 -382 -302 -52 -129 -54 -124 31 -143 197 -44
338 -80 328 -83 -13 -4 -15 -32 -2 -32 6 0 13 -21 17 -46 6 -42 4 -49 -17 -65
l-24 -18 54 -3 c52 -3 55 -4 63 -35 5 -18 13 -33 19 -33 6 0 8 -4 5 -8 -3 -5
4 -23 15 -41 11 -18 18 -36 15 -38 -3 -3 1 -22 9 -42 19 -52 52 -170 60 -214
3 -21 10 -35 14 -32 5 2 11 -12 14 -31 5 -28 -1 -52 -23 -102 -31 -67 -38 -98
-20 -87 6 4 21 0 33 -8 27 -18 56 -115 38 -126 -7 -5 -1 -16 18 -34 22 -20 31
-38 35 -74 3 -26 11 -74 17 -106 11 -66 39 -291 39 -324 0 -27 -19 -33 -420
-143 -162 -45 -324 -89 -360 -100 -169 -49 -301 -82 -307 -77 -3 4 -28 82 -55
174 -27 92 -51 169 -52 171 -9 8 -572 -134 -636 -161 -77 -32 -155 -93 -171
-135 -15 -39 13 -77 83 -111 61 -30 239 -81 282 -81 11 0 28 -5 36 -11 11 -7
3 -8 -27 -4 -28 5 -43 3 -43 -4 0 -6 12 -11 28 -12 15 0 21 -3 14 -6 -7 -3
-36 1 -65 8 -29 7 -52 10 -53 8 0 -2 -8 2 -16 9 -9 7 -24 10 -34 6 -13 -4 -15
-3 -6 3 19 14 -2 29 -53 38 -45 8 -40 -4 8 -22 18 -6 25 -12 17 -12 -25 -1
-140 57 -161 81 l-18 23 -1 -28 c-1 -112 168 -188 485 -217 239 -22 559 2 755
56 172 48 1087 328 1098 337 6 5 12 24 12 42 l0 33 -103 -28 c-57 -15 -119
-32 -138 -38 -39 -13 -327 -96 -409 -118 -30 -8 -62 -18 -70 -21 -8 -3 -18 -5
-22 -5 -5 1 -8 -2 -8 -8 0 -5 -8 -9 -17 -8 -20 3 -88 -15 -143 -36 -37 -15
-105 -35 -130 -40 -8 -2 -28 -8 -43 -14 -16 -7 -36 -12 -45 -11 -11 1 -7 4 8
9 l25 8 -25 1 c-14 0 -36 -2 -50 -6 l-25 -7 25 -8 c20 -6 19 -7 -8 -3 -18 3
-31 1 -27 -4 3 -5 -4 -7 -16 -4 -12 3 -24 1 -28 -4 -3 -6 -35 -13 -71 -16 -42
-4 -56 -3 -40 2 23 8 23 9 -10 11 -32 1 -33 2 -12 10 12 5 53 12 90 15 76 7
136 23 552 141 596 171 741 216 736 230 -4 9 17 20 67 34 40 12 92 28 116 36
25 7 55 14 69 14 13 0 38 6 55 14 18 8 63 24 101 35 l69 20 -7 -405 -8 -404
181 0 181 0 1 228 c1 125 4 330 8 456 l6 229 270 77 c149 42 288 82 310 87 22
6 92 27 155 47 63 20 127 36 142 36 21 0 29 6 32 23 6 29 31 894 30 1062 -1
149 -16 219 -70 328 -20 38 -30 66 -25 62 21 -12 10 5 -39 64 -28 34 -74 75
-103 91 -69 40 -168 70 -226 69 -45 -1 -46 -1 -13 -10 17 -5 32 -11 32 -12 0
-1 -88 -1 -196 1 -129 1 -193 -1 -189 -8 4 -6 -16 -10 -52 -10 -47 0 -471 -27
-670 -43 -53 -5 -53 -6 -53 206 0 125 3 169 13 172 6 3 85 18 175 35 90 16
167 32 172 35 6 4 10 64 10 134 l0 128 -112 6 c-62 4 -156 7 -209 7 l-96 0 -7
-61z m1238 -610 c-4 -7 0 -9 14 -5 18 6 92 -16 92 -27 0 -2 -35 -3 -77 -2 -74
2 -116 -4 -157 -21 -15 -5 -17 -4 -11 6 5 9 4 11 -3 6 -6 -4 -23 -1 -38 7 -25
13 -21 14 61 21 48 3 95 11 104 16 21 12 24 12 15 -1z m-220 -42 c16 -12 16
-13 -3 -13 -11 0 -18 4 -15 8 2 4 -17 9 -43 11 l-48 3 46 2 c25 1 53 -4 63
-11z m303 -519 c-3 -8 -6 -5 -6 6 -1 11 2 17 5 13 3 -3 4 -12 1 -19z m0 -80
c-2 -13 -4 -5 -4 17 -1 22 1 32 4 23 2 -10 2 -28 0 -40z m0 -90 c-2 -13 -4 -3
-4 22 0 25 2 35 4 23 2 -13 2 -33 0 -45z m-163 -224 l-7 -157 39 7 c21 4 43
12 49 17 17 17 25 9 25 -23 0 -32 -24 -68 -44 -68 -6 0 -4 5 4 11 16 11 8 11
-83 -6 l-39 -8 6 184 c5 182 5 184 28 190 13 4 25 7 26 8 2 1 0 -69 -4 -155z
m-132 -56 c-2 -101 -5 -184 -6 -185 -1 -2 -13 -4 -25 -5 l-23 -3 2 179 c0 99
3 183 6 188 3 4 16 8 28 8 l23 0 -5 -182z m325 160 c-3 -8 -6 -5 -6 6 -1 11 2
17 5 13 3 -3 4 -12 1 -19z m-528 -46 c33 -119 78 -318 74 -324 -2 -5 -15 -8
-28 -8 -20 0 -25 7 -31 35 -6 35 -7 35 -43 29 -55 -10 -68 -20 -75 -59 -5 -26
-14 -39 -33 -46 -14 -5 -28 -8 -30 -5 -4 4 34 164 62 256 7 25 21 71 30 103
13 49 19 57 40 57 20 0 26 -7 34 -38z m-236 -194 c-3 -106 -6 -194 -7 -195 -1
-1 -13 -4 -29 -8 l-27 -7 5 103 5 104 -32 -112 c-28 -97 -35 -113 -53 -113
-18 0 -26 16 -52 103 l-32 102 0 -112 -1 -113 -30 0 -30 0 7 198 c4 125 10
200 17 204 28 20 41 -1 80 -134 22 -75 42 -135 44 -134 1 2 21 68 43 146 22
79 42 147 45 152 3 4 16 8 29 8 l23 0 -5 -192z m-465 -83 c16 -35 15 -56 -4
-83 -17 -24 -55 -27 -60 -4 -1 7 0 8 3 2 10 -21 22 -9 13 14 -5 13 -6 27 -2
32 4 4 0 5 -9 1 -13 -4 -16 -1 -12 14 4 12 11 18 20 15 8 -4 11 -1 7 5 -6 10
11 28 27 29 3 0 11 -11 17 -25z m1059 -11 c-3 -3 -12 -4 -19 -1 -8 3 -5 6 6 6
11 1 17 -2 13 -5z m26 -21 c-7 -2 -19 -2 -25 0 -7 3 -2 5 12 5 14 0 19 -2 13
-5z m174 -45 c-3 -8 -6 -5 -6 6 -1 11 2 17 5 13 3 -3 4 -12 1 -19z m-80 -165
c-2 -21 -4 -4 -4 37 0 41 2 58 4 38 2 -21 2 -55 0 -75z m70 -25 c-2 -18 -4 -6
-4 27 0 33 2 48 4 33 2 -15 2 -42 0 -60z m240 -54 c-3 -3 -12 -4 -19 -1 -8 3
-5 6 6 6 11 1 17 -2 13 -5z m-73 -52 c2 -4 -4 -8 -14 -8 -10 0 -16 4 -14 8 3
4 9 8 14 8 5 0 11 -4 14 -8z m-244 -17 c0 -8 -4 -15 -10 -15 -5 0 -7 7 -4 15
4 8 8 15 10 15 2 0 4 -7 4 -15z m197 -10 c0 -8 -4 -12 -9 -9 -5 3 -6 10 -3 15
9 13 12 11 12 -6z m-77 -30 c0 -2 -6 -5 -13 -8 -8 -3 -14 1 -14 8 0 7 6 11 14
8 7 -3 13 -6 13 -8z m96 -15 c-3 -38 -12 -47 -21 -20 -4 12 -1 27 5 35 17 20
18 19 16 -15z m-141 10 c3 -5 1 -10 -4 -10 -6 0 -11 5 -11 10 0 6 2 10 4 10 3
0 8 -4 11 -10z m-82 -41 c-8 -8 -13 -7 -18 2 -5 8 -4 10 3 5 7 -4 12 -2 12 5
0 7 3 9 7 6 4 -4 2 -12 -4 -18z m-21 -45 c-7 -37 -27 -23 -27 19 -1 33 0 35
16 21 10 -9 14 -24 11 -40z m191 49 c-7 -2 -21 -2 -30 0 -10 3 -4 5 12 5 17 0
24 -2 18 -5z m117 3 c0 -2 -7 -7 -16 -10 -8 -3 -12 -2 -9 4 6 10 25 14 25 6z
m-45 -16 c3 -5 1 -10 -4 -10 -6 0 -11 5 -11 10 0 6 2 10 4 10 3 0 8 -4 11 -10z
m-168 -47 c-3 -10 -5 -4 -5 12 0 17 2 24 5 18 2 -7 2 -21 0 -30z m86 20 c-7
-2 -19 -2 -25 0 -7 3 -2 5 12 5 14 0 19 -2 13 -5z m-480 -70 c-5 -11 -3 -14 6
-8 10 6 11 3 2 -14 -7 -11 -16 -21 -21 -21 -14 0 -12 34 2 48 16 16 19 15 11
-5z m227 -3 c-8 -5 -19 -10 -25 -10 -5 0 -3 5 5 10 8 5 20 10 25 10 6 0 3 -5
-5 -10z m-538 -95 c-6 -32 -20 -41 -29 -19 -4 11 1 22 12 30 24 18 23 18 17
-11z m-342 -100 c0 -8 -5 -17 -11 -21 -16 -9 -30 18 -17 33 12 15 28 8 28 -12z
m-312 -87 c-5 -32 -28 -35 -28 -4 0 17 5 26 16 26 10 0 14 -7 12 -22z m-152
-43 c7 -29 -11 -57 -34 -53 -9 2 -16 14 -17 28 -4 49 40 70 51 25z m-1421
-495 l-30 -8 34 -1 c19 0 32 -3 29 -6 -3 -3 -90 -7 -194 -10 -110 -2 -178 0
-164 5 21 7 22 8 5 10 l-20 1 20 9 c11 5 94 8 185 8 96 0 153 -4 135 -8z
m-427 -17 c-10 -2 -28 -2 -40 0 -13 2 -5 4 17 4 22 1 32 -1 23 -4z"/>
<path d="M3861 1827 c-6 -16 -14 -45 -17 -66 -6 -38 -6 -38 25 -33 35 5 36 8
17 77 l-13 50 -12 -28z"/>
<path d="M3177 1616 c-6 -15 1 -26 15 -26 4 0 8 9 8 20 0 23 -15 27 -23 6z"/>
<path d="M2910 724 c0 -8 5 -12 10 -9 6 3 10 10 10 16 0 5 -4 9 -10 9 -5 0
-10 -7 -10 -16z"/>
<path d="M2170 2909 c0 -5 5 -7 10 -4 6 3 10 8 10 11 0 2 -4 4 -10 4 -5 0 -10
-5 -10 -11z"/>
<path d="M2223 2895 c-10 -11 -9 -13 6 -12 11 1 17 7 14 14 -6 16 -5 16 -20
-2z"/>
<path d="M2176 2875 c4 -10 19 -14 48 -13 l41 1 -37 4 c-21 2 -38 8 -38 14 0
5 -4 9 -10 9 -5 0 -7 -7 -4 -15z"/>
<path d="M2420 2790 c0 -5 7 -7 15 -4 8 4 15 8 15 10 0 2 -7 4 -15 4 -8 0 -15
-4 -15 -10z"/>
<path d="M2428 2763 c6 -2 18 -2 25 0 6 3 1 5 -13 5 -14 0 -19 -2 -12 -5z"/>
</g>
</svg>
